<svg width="1330" height="612" viewBox="0 0 1330 612" fill="none" xmlns="http://www.w3.org/2000/svg">
<rect width="1330" height="612" fill="#1E1E1E"/>
<g clip-path="url(#clip0_0_1)">
<path d="M100.969 456.064C101.417 457.044 101.516 458.291 101.118 459.27C96.8816 462.744 87.4607 464.612 86.8629 469.332C91.3013 466.986 96.9319 465.8 102.563 464.85C106.852 464.642 111.287 464.405 115.822 464.138C117.268 464.524 116.571 465.504 116.42 466.186C115.873 468.205 112.333 469.155 109.742 470.045C104.407 470.816 99.3737 471.618 95.5852 474.319C102.763 473.814 108.744 471.143 116.069 470.609C118.761 470.905 118.711 472.656 119.31 473.874C119.508 474.526 119.01 474.972 118.313 475.387C113.379 476.842 108.744 478.711 103.76 480.076C100.919 481.086 98.7255 482.837 98.8262 484.914C98.927 485.627 98.6264 486.428 99.0748 487.051C104.457 486.428 108.841 484.409 114.375 484.084C116.019 484.38 118.412 484.173 118.911 485.419C119.109 486.339 119.209 487.437 118.313 488.208C114.922 489.574 111.235 490.731 107.446 491.325C103.958 491.859 102.811 494.442 99.6709 495.243C97.0797 498.567 94.0889 501.803 92.2433 505.305C90.999 507.739 87.2106 509.668 83.5245 510.855C82.2768 514.416 76.9937 516.968 75.2489 520.412C71.2119 527.031 70.6124 534.51 67.1262 541.277C64.3839 549.765 60.2462 557.897 55.3124 565.852C54.5668 567.484 53.2687 569.087 53.6179 570.897C61.0942 574.132 67.4721 578.198 73.9525 582.235C75.6469 582.947 77.8888 582.917 79.684 583.511L86.2634 585.499C93.1905 585.47 99.6692 586.034 106.151 586.627C108.64 586.687 110.586 585.886 112.83 585.559C115.57 585.321 118.361 584.847 121.203 584.936C122.049 584.164 123.594 583.304 122.647 582.353C121.251 581.077 119.309 579.949 118.56 578.524C112.13 575.23 109.49 571.045 107.945 566.563C105.852 564.13 105.7 561.518 104.702 558.847C104.752 556.176 103.557 552.94 104.354 550.18C105.401 548.251 106.2 546.114 105.651 543.976C105.152 541.513 107.743 539.435 108.391 537.06C109.987 534.389 109.787 531.273 113.176 529.017C113.824 527.949 115.319 527.088 115.569 525.96C118.261 523.793 122.647 522.131 126.086 520.321C130.62 518.778 136.155 519.52 141.039 518.896C145.175 518.421 149.462 517.738 153.847 518.125C161.225 520.292 170.246 520.143 178.468 521.123C180.512 521.479 181.807 522.458 183.751 522.963L182.905 522.904C187.891 525.218 192.027 528.305 196.412 530.947C198.554 532.668 199.004 534.835 200.499 536.705C201.198 537.952 200.45 539.524 202.046 540.563C209.173 544.065 217.196 547.034 223.925 550.803C225.27 551.367 226.417 552.138 227.314 552.792V611.795H48.7363C36.773 602.594 28.6989 592.325 21.4225 581.937C17.6341 579.295 14.7423 576.416 13.2981 573.182C13.0983 569.739 15.8893 566.89 16.786 563.625C19.4779 556.353 19.3285 548.666 23.8139 541.839C31.94 528.72 45.3441 517.116 56.0127 504.65C58.1554 502.721 56.958 499.99 59.8514 498.239C61.1462 493.431 58.7028 488.741 60.5467 484.082C62.4913 479.956 65.5326 476.009 65.3327 471.467C65.4335 470.28 66.829 469.331 68.5721 468.885C69.9693 468.885 71.4638 469.36 72.6594 469.746C76.6965 465.205 81.8317 460.486 89.758 457.725C92.7975 456.389 95.8371 454.46 99.775 455.142L100.969 456.064Z" fill="black"/>
<path d="M1141.4 515.175C1142.07 518.311 1139.47 521.492 1140.14 524.628C1140.29 527.898 1136.13 530.504 1138.21 533.861C1140.36 534.744 1142.44 532.579 1144.74 533.641C1146.97 534.568 1149.64 533.11 1151.71 534.26C1154.46 536.158 1159.43 534.524 1162.55 536.071C1166.99 537.351 1164.47 541.062 1165.44 542.962C1164.18 547.997 1163.44 553.432 1158.46 557.716C1151.64 560.852 1153.42 566.241 1152.6 570.747C1153.57 583.47 1164.33 594.071 1172.71 605.07C1175.97 610.415 1179.61 615.937 1179.16 621.945C1180.79 622.783 1183.17 622.519 1185.39 622.563C1196.37 624.506 1207.27 626.584 1217.22 629.985C1216.63 640.146 1216.4 648.893 1216.7 659.053C1208.61 659.053 1199.12 658.39 1190.88 658.964C1174.26 652.736 1164.77 642.443 1148.52 635.641C1141.63 632.681 1137.69 627.995 1137.62 622.916C1136.73 615.009 1128.05 609.09 1129.09 600.74L1127.83 577.328C1127.31 573.926 1124.34 570.79 1125.53 567.565C1128.05 565.444 1126.79 562.883 1126.64 560.364C1126.12 555.726 1124.27 551.441 1122.19 547.2C1119.07 544.02 1119.67 540.088 1121.59 536.73C1127.01 531.871 1127.6 525.863 1132.13 520.827C1134.57 517.515 1134.57 514.024 1136.21 510.535C1136.73 510.225 1137.4 509.696 1137.99 510.225C1140.22 511.596 1141.85 513.275 1141.4 515.175Z" fill="black"/>
<path d="M44.4803 436.359C48.1159 442.19 44.7775 449.038 47.3737 455.001C48.2654 457.298 47.5215 459.992 50.0454 461.892C50.6365 461.936 51.3805 461.803 51.9733 461.45L52.3444 461.141C53.3083 455 52.4922 449.214 53.7533 443.117C54.1244 442.056 54.9406 440.909 56.6467 440.378C57.5384 440.069 58.724 440.467 59.4663 440.467C63.4714 443.956 61.5436 448.683 61.7652 452.791C61.4697 456.148 60.8769 459.24 61.6191 462.729C61.9886 463.966 63.6964 464.365 65.1792 464.938C69.7032 465.424 69.9283 461.935 73.3389 460.918C76.6051 457.782 78.9763 454.424 82.612 451.376C83.5037 450.757 84.7631 450.978 85.8026 450.978C88.696 452.568 87.2115 455.042 86.3232 456.897C82.0931 461.58 78.088 466.306 74.2306 471.122C73.3389 474.303 75.0467 477.306 75.4918 480.443C75.9368 484.949 75.2684 489.587 73.7117 493.562C75.119 497.14 75.789 500.852 78.0141 504.164C83.0586 511.541 89.7355 518.477 95.8179 525.588C95.5207 526.206 96.7818 526.428 96.8557 526.958C102.715 534.821 109.764 542.419 112.88 550.944C113.4 553.021 114.733 554.92 115.697 556.864C119.629 558.809 124.599 560.223 127.639 562.917C127.864 569.809 128.012 577.495 128.158 584.739C118.96 585.225 110.653 584.473 101.306 585.181C98.6341 582.178 98.1891 578.643 94.1823 575.948C76.9729 565.214 60.5797 553.462 55.3856 539.37C47.7448 524.218 49.3032 506.681 40.7724 491.882C39.7329 490.999 38.0267 490.601 36.47 490.203C31.9443 485.654 22.9685 484.638 17.9978 480.308C14.6594 476.024 7.90862 472.401 1.08565 470.06C0.269511 469.574 -0.324956 468.778 0.195624 468.028C2.3468 466.393 6.2797 467.055 8.87421 467.586C14.6594 469.264 19.0356 472.268 24.2297 474.697C25.6386 474.874 28.087 475.006 28.1609 473.769C27.197 470.235 26.7503 466.569 23.7108 463.565C19.7779 459.148 15.6233 454.818 14.0666 449.783C12.5838 447.353 9.83814 445.232 9.24535 442.583C10.3587 441.92 11.991 441.743 13.3244 441.832C17.9978 443.644 19.6301 446.956 21.5579 449.784C26.3792 453.318 30.2382 457.249 33.1316 461.357C34.3928 462.107 34.5405 462.815 36.47 462.417L38.2484 461.137C36.7656 455.084 35.9511 447.929 36.8395 441.832C37.1367 439.888 37.9529 437.371 40.9202 436C42.183 436.359 43.3686 435.829 44.4803 436.359Z" fill="black"/>
<path d="M1058.2 417.174C1057.53 420.312 1060.13 423.492 1059.46 426.629C1059.31 429.897 1063.47 432.503 1061.39 435.86C1059.24 436.744 1057.16 434.579 1054.86 435.64C1052.64 436.567 1049.97 435.11 1047.89 436.258C1045.14 438.157 1040.17 436.523 1037.06 438.069C1032.61 439.351 1035.13 443.061 1034.17 444.96C1035.43 449.996 1036.17 455.43 1041.14 459.715C1047.96 462.85 1046.18 468.24 1047 472.746C1046.03 485.468 1035.28 496.07 1026.89 507.069C1023.63 512.414 1020 517.936 1020.44 523.944C1018.81 524.784 1016.44 524.518 1014.21 524.562C1003.23 526.506 992.324 528.584 982.386 531.986C982.981 542.145 983.201 550.892 982.905 561.052C990.991 561.052 1000.49 560.389 1008.72 560.963C1025.34 554.734 1034.83 544.443 1051.08 537.64C1057.97 534.68 1061.91 529.997 1061.98 524.915C1062.87 517.007 1071.55 511.088 1070.51 502.739L1071.78 479.327C1072.3 475.925 1075.26 472.789 1074.07 469.564C1071.55 467.444 1072.81 464.881 1072.96 462.364C1073.48 457.726 1075.34 453.44 1077.41 449.199C1080.53 446.018 1079.93 442.087 1078.01 438.73C1072.59 433.87 1072 427.863 1067.47 422.827C1065.03 419.514 1065.03 416.025 1063.39 412.535C1062.87 412.225 1062.21 411.696 1061.61 412.225C1059.39 413.598 1057.76 415.276 1058.2 417.174Z" fill="black"/>
<path d="M1203.18 450.676C1199.54 456.508 1202.88 463.354 1200.28 469.317C1199.39 471.614 1200.13 474.309 1197.61 476.208C1197.02 476.253 1196.28 476.12 1195.68 475.767L1195.31 475.457C1194.35 469.317 1195.16 463.53 1193.9 457.434C1193.53 456.373 1192.71 455.225 1191.01 454.695C1190.12 454.386 1188.93 454.783 1188.19 454.783C1184.18 458.273 1186.11 462.999 1185.89 467.108C1186.19 470.465 1186.78 473.557 1186.04 477.047C1185.67 478.284 1183.96 478.682 1182.48 479.255C1177.95 479.741 1177.73 476.252 1174.32 475.235C1171.05 472.099 1168.68 468.742 1165.05 465.694C1164.16 465.075 1162.89 465.296 1161.86 465.296C1158.96 466.886 1160.45 469.36 1161.34 471.216C1165.57 475.898 1169.57 480.625 1173.43 485.44C1174.32 488.62 1172.61 491.625 1172.17 494.761C1171.72 499.267 1172.39 503.905 1173.95 507.881C1172.54 511.459 1171.87 515.17 1169.65 518.482C1164.6 525.859 1157.93 532.794 1151.84 539.907C1152.14 540.526 1150.88 540.746 1150.8 541.277C1144.94 549.14 1137.89 556.737 1134.78 565.265C1134.26 567.341 1132.93 569.243 1131.96 571.186C1128.03 573.129 1123.06 574.542 1120.02 577.237C1119.8 584.13 1119.65 591.815 1119.5 599.059C1128.7 599.545 1137 598.794 1146.35 599.5C1149.02 596.496 1149.47 592.963 1153.47 590.268C1170.68 579.534 1187.08 567.783 1192.27 553.69C1199.91 538.539 1198.35 521.001 1206.88 506.202C1207.92 505.318 1209.63 504.921 1211.18 504.524C1215.71 499.973 1224.69 498.958 1229.66 494.628C1232.99 490.343 1239.75 486.721 1246.57 484.379C1247.39 483.893 1247.98 483.098 1247.46 482.347C1245.31 480.713 1241.37 481.375 1238.78 481.906C1233 483.584 1228.62 486.588 1223.42 489.018C1222.01 489.194 1219.57 489.327 1219.49 488.09C1220.45 484.556 1220.9 480.889 1223.94 477.885C1227.87 473.468 1232.03 469.138 1233.59 464.103C1235.07 461.673 1237.81 459.553 1238.41 456.902C1237.29 456.239 1235.66 456.063 1234.33 456.152C1229.65 457.963 1228.02 461.277 1226.09 464.103C1221.27 467.637 1217.41 471.568 1214.52 475.677C1213.26 476.428 1213.11 477.135 1211.18 476.738L1209.4 475.456C1210.88 469.404 1211.7 462.248 1210.81 456.152C1210.51 454.209 1209.7 451.69 1206.73 450.321C1205.47 450.676 1204.29 450.145 1203.18 450.676Z" fill="black"/>
<path d="M1062.88 385.093C1062.07 389.909 1066.15 393.531 1067.12 397.905C1066.22 398.788 1065.33 397.728 1064.44 397.596C1060.14 394.68 1056.65 391.411 1051.31 389.114C1047.97 387.126 1045.15 384.476 1040.78 383.283C1039.52 384.607 1038.93 386.375 1039.74 387.966C1040.93 390.351 1045.16 391.985 1048.05 393.664C1049.31 396.005 1053.98 397.684 1053.24 400.555C1052.87 401.085 1051.69 400.776 1051.09 400.555C1046.72 398.965 1042.04 397.374 1037.96 395.785C1035.74 395.651 1032.84 394.945 1030.84 396.137C1030.62 400.467 1039.45 402.1 1043.45 405.148C1044.19 405.237 1044.86 405.724 1045.23 406.076C1044.27 407.976 1046.27 410.451 1045.61 412.57C1044.12 413.41 1042.42 413.144 1040.63 413.189C1035.37 410.804 1031.07 407.226 1025.28 405.325C1024.09 405.635 1022.46 405.679 1021.94 406.518C1021.57 407.49 1022.31 408.462 1023.35 409.258L1023.13 409.39C1028.55 413.189 1034.41 416.546 1039.52 420.521C1037.15 429.532 1043.75 436.822 1048.28 444.332C1049.54 447.424 1046.87 450.561 1046.5 453.785C1046.12 454.228 1046.27 454.802 1045.97 455.376C1040.41 468.938 1035.89 482.897 1028.47 495.884C1026.69 499.373 1025.43 503.04 1025.5 507.017C1023.42 510.154 1016.9 510.066 1012.3 511.126C1004.88 512.938 997.236 514.571 990.931 517.708L990.783 541.783V543.284C999.018 543.108 1007.99 543.241 1016.23 542.754C1017.71 542.71 1018.6 541.562 1019.94 541.694C1035.07 535.508 1046.12 526.674 1058.43 518.678C1063.56 514.924 1062.52 509.623 1065.85 505.426C1068.75 499.284 1073.05 493.541 1074.98 487.179C1077.2 468.671 1074.38 449.721 1076.54 430.593C1076.46 427.412 1079.5 425.027 1079.58 421.89C1078.76 415.926 1079.21 410.45 1077.8 404.618C1075.65 402.675 1075.13 399.935 1075.65 397.727C1073.35 393.839 1072.01 389.776 1068.75 386.153C1067.86 384.695 1067.04 383.149 1065.34 382C1062.59 382.091 1063.48 384.034 1062.88 385.093Z" fill="black"/>
<path d="M982.423 433.965C981.009 433.081 979.595 433.081 978.384 433.819C977.372 435.149 976.969 436.627 977.372 438.252C978.183 439.73 979.193 440.911 980.809 441.946C982.424 443.127 983.839 443.867 985.457 444.604C984.444 446.82 984.243 449.037 984.85 451.255C984.85 451.549 984.646 451.696 984.244 451.994C983.231 451.255 982.222 450.514 980.809 449.775C979.799 449.036 978.385 448.741 976.969 449.036C974.949 449.333 973.332 450.22 972.323 451.696C970.911 453.026 969.494 453.764 967.677 453.914C966.263 454.21 964.849 454.651 963.638 455.539C962.625 456.426 961.415 457.017 960.202 457.461C959.19 457.757 957.979 457.164 956.565 456.13C955.756 456.13 955.555 456.426 955.555 456.868C955.555 457.461 955.555 457.904 955.555 458.346C955.354 459.232 955.555 460.12 956.362 460.86C956.969 461.599 957.778 462.337 958.585 463.075C960.607 464.256 962.829 465.883 964.849 467.509C964.446 469.43 964.244 471.499 964.244 473.568C964.446 475.785 964.244 477.854 964.244 479.922C964.04 481.992 964.244 484.207 964.648 486.276C964.849 488.346 966.062 490.117 968.082 491.745C968.891 496.029 968.69 500.165 967.879 504.45C967.68 505.929 967.275 507.406 966.872 508.736C965.254 507.848 963.438 506.964 961.822 505.929C961.215 505.486 961.012 504.894 961.012 504.303C960.811 503.712 960.811 503.121 960.608 502.531C960.205 501.794 959.8 500.906 959.601 500.018C959.193 499.131 958.587 498.245 957.982 497.506C956.363 496.323 954.75 495.143 953.133 494.109C951.718 492.777 950.104 491.595 948.486 490.71H949.092C948.282 490.413 947.477 490.117 947.07 489.822C946.465 489.527 946.062 489.231 945.253 489.084C945.05 489.084 945.05 489.084 944.644 488.936C945.253 488.642 945.862 488.197 946.465 487.754C949.092 484.799 950.91 481.547 951.918 478.003C952.931 474.457 953.535 470.908 954.141 467.214C953.942 465.735 953.942 464.111 954.141 462.19C954.141 460.123 953.133 458.645 951.11 457.61C949.091 456.726 947.07 456.428 944.644 456.576C942.425 456.726 940.404 456.133 938.587 455.098C937.376 454.506 936.162 454.212 934.745 454.654C933.332 454.951 931.919 454.654 930.906 454.213C929.29 453.768 928.28 453.768 926.869 454.213C925.855 454.951 924.443 454.951 923.233 454.654C922.22 452.291 922.424 450.075 923.636 448.005C924.849 446.084 925.253 443.869 925.455 441.652C925.253 439.434 925.455 437.218 926.26 435.003C926.869 432.786 927.271 430.569 926.869 428.352C927.271 425.693 925.855 423.478 923.027 421.557C922.219 421.114 921.616 421.262 921.21 421.999C920.2 424.363 919.593 426.876 919.189 429.239C918.583 431.604 917.774 433.967 916.361 436.332C914.137 439.878 912.119 443.572 910.704 447.563C909.491 451.404 907.269 455.098 904.238 458.645C901.611 463.521 902.015 468.544 905.046 473.125C907.068 478.003 908.681 482.878 909.692 487.902C909.086 488.196 908.681 488.196 908.278 488.346C907.067 489.231 905.855 489.969 904.641 490.709C903.229 491.448 902.015 492.334 901.006 493.367C901.006 493.664 900.602 494.108 900.198 494.551C899.998 494.992 899.592 495.437 899.388 495.88C898.175 496.914 897.57 498.097 897.166 499.279C896.964 500.462 896.561 501.642 895.954 502.825C895.954 503.416 895.55 503.712 895.55 504.303C894.943 498.539 894.137 493.073 893.53 487.31C893.933 484.65 894.135 481.992 893.933 479.331C895.954 475.638 896.156 471.942 894.942 467.954C895.146 466.771 895.347 465.591 895.549 464.257C895.952 463.076 895.952 461.601 895.549 460.416C892.921 458.201 889.286 457.166 884.841 457.166C882.417 456.132 879.79 455.393 876.762 455.245C877.771 453.766 878.376 452.29 878.979 450.812C879.385 449.777 879.992 448.596 880.193 447.266C880.396 446.082 879.994 444.901 879.385 443.868C876.762 443.277 874.335 442.834 871.708 442.093C871.103 440.912 870.296 439.877 869.284 438.697C867.266 437.957 864.638 437.515 861.809 437.515C861.406 437.661 861.003 437.661 860.396 437.81C859.79 437.81 859.387 437.956 858.982 438.253C855.546 437.956 852.516 438.696 849.686 440.173C845.443 440.026 841.607 441.06 838.982 443.128C838.779 444.606 838.779 445.787 838.982 447.267C839.183 448.448 839.384 449.631 839.585 450.813C838.372 454.802 838.778 458.496 840.595 462.042C840.394 464.851 840.595 467.51 841.001 470.171C840.192 478.003 839.382 485.832 838.372 493.665C837.364 499.575 837.163 505.486 837.564 511.396C837.564 514.054 837.969 516.715 838.372 519.228C837.969 518.342 837.564 517.307 837.364 516.421C836.957 515.236 836.352 514.054 835.342 513.022C834.939 512.578 834.738 512.135 834.332 511.839C833.927 511.396 833.526 510.804 833.526 510.36C832.515 509.473 831.302 508.588 829.889 507.847C828.675 506.962 827.262 506.371 826.251 505.485C825.847 505.485 825.239 505.188 824.836 505.188C825.846 500.017 827.262 495.142 829.485 490.412C832.515 485.685 832.919 480.808 830.089 475.637C827.262 472.238 825.238 468.543 823.824 464.701C822.413 460.86 820.594 457.017 818.171 453.471C816.756 451.256 815.946 448.742 815.542 446.379C815.14 444.015 814.533 441.65 813.519 439.137C812.713 438.398 812.106 438.252 811.5 438.696C808.674 440.615 807.257 442.834 807.662 445.64C807.257 447.857 807.662 450.074 808.469 452.289C809.074 454.358 809.278 456.725 809.074 458.791C809.074 461.155 809.882 463.224 811.097 465.292C812.103 467.213 812.103 469.43 811.298 471.647C810.082 472.237 808.671 471.941 807.661 471.499C806.444 470.907 805.033 470.907 803.821 471.499C802.607 471.941 801.194 471.941 799.78 471.647C798.365 471.499 797.155 471.499 795.942 472.237C794.322 473.42 792.305 473.862 789.881 473.715C787.454 473.568 785.436 473.862 783.618 474.899C781.394 475.785 780.385 477.262 780.385 479.331C780.585 481.251 780.585 483.026 780.385 484.503C780.789 487.902 781.798 491.596 782.604 495.144C783.618 498.69 785.436 501.94 788.264 505.042C788.869 505.486 789.273 505.783 789.882 506.225C789.68 506.225 789.475 506.225 789.274 506.225C788.466 506.373 787.862 506.668 787.455 506.964C786.853 507.259 786.244 507.556 785.64 507.849H786.244C784.426 508.884 782.808 509.919 781.396 511.103C779.778 512.284 778.366 513.613 776.749 514.796C775.942 515.535 775.332 516.274 774.931 517.158C774.732 518.046 774.326 518.784 773.717 519.671C773.717 520.262 773.518 520.853 773.518 521.445C773.518 522.036 773.315 522.626 772.708 522.921C771.089 524.104 769.476 524.991 767.659 525.878C767.253 524.4 766.85 523.071 766.65 521.593C765.638 517.308 765.638 513.023 766.65 508.884C768.466 507.406 769.68 505.487 770.083 503.417C770.283 501.2 770.487 499.28 770.283 497.064C770.283 495.143 770.283 492.925 770.283 490.71C770.283 488.642 770.083 486.571 769.68 484.65C771.702 483.026 773.719 481.546 775.943 480.07C776.75 479.627 777.561 478.887 778.367 478.003C778.769 477.263 779.174 476.377 778.97 475.489C778.769 475.194 778.769 474.602 778.97 474.16C778.97 473.568 778.769 473.273 778.165 473.125C776.749 474.457 775.332 474.899 774.324 474.457C773.113 474.16 772.101 473.421 770.688 472.681C769.678 471.943 768.263 471.354 767.051 471.205C765.03 470.908 763.414 470.171 762.202 468.84C761.597 467.954 760.79 467.214 759.777 466.772C760.384 466.33 761.193 465.736 762 465.293C764.83 463.521 767.253 461.156 769.074 458.645C769.881 455.986 771.496 453.472 773.717 451.109C775.942 448.744 778.366 446.677 781.396 444.902C782 444.163 782 443.424 781.396 442.539C780.183 441.799 778.768 441.652 777.353 441.948C775.738 442.094 774.527 442.686 773.314 443.129C771.089 444.607 769.073 446.084 767.252 447.858C765.436 449.631 763.616 451.404 761.595 453.177C760.789 453.324 760.182 453.472 759.373 453.472C758.567 453.619 758.159 453.177 757.756 452.735C757.556 450.516 757.556 448.597 757.556 446.528C757.354 444.606 757.756 442.539 758.567 440.616C759.978 437.957 760.789 435.151 761.999 432.49C762.808 429.682 763.21 426.876 763.21 423.919C763.616 422.591 764.22 421.113 764.626 419.783C765.231 418.304 765.636 416.827 765.636 415.348C764.22 414.758 762.808 414.758 761.595 414.906C759.775 416.235 758.567 417.861 757.96 419.783C757.149 421.408 756.747 423.181 756.543 424.955C754.121 428.351 752.098 431.75 750.687 435.298C749.878 427.909 749.069 420.522 748.464 412.986C750.484 410.472 751.696 407.962 752.098 405.006C752.303 402.05 753.109 399.391 754.527 396.88C755.13 394.516 755.533 392.002 755.939 389.639C756.34 387.274 755.939 384.76 754.725 382.398C754.725 380.33 754.525 378.262 753.716 376.192C753.109 373.975 751.491 372.202 748.667 370.872C747.05 369.689 745.027 368.657 743.009 367.474C741.189 366.291 739.573 365.111 738.159 363.632C736.946 362.895 735.534 362.747 734.32 363.484C733.311 364.816 732.905 366.292 733.311 367.92C734.118 369.399 735.333 370.579 736.744 371.613C738.159 372.646 739.774 373.533 741.39 374.271C740.382 376.488 739.975 378.555 740.786 380.772C740.586 381.216 740.586 381.366 740.181 381.512C739.17 380.919 737.958 380.182 736.948 379.444C735.735 378.706 734.321 378.41 732.906 378.555C730.885 379.149 729.271 379.887 728.263 381.366C726.848 382.694 725.229 383.581 723.413 383.729C722.199 383.729 720.786 384.32 719.777 385.207C718.364 385.946 717.352 386.684 716.138 387.13C715.128 387.423 713.714 386.833 712.3 385.799C711.693 385.799 711.491 386.094 711.491 386.684C711.692 387.13 711.692 387.572 711.491 388.015C711.291 388.902 711.692 389.787 712.098 390.527C712.906 391.265 713.713 392.005 714.519 392.596C716.744 394.074 718.763 395.55 720.784 397.176C720.378 399.098 720.177 401.166 720.177 403.235C720.378 405.304 720.177 407.52 720.177 409.589C719.978 411.806 720.177 413.874 720.378 415.943C720.784 416.977 721.19 418.16 721.796 419.193C720.784 419.193 719.774 419.193 719.168 419.637C717.955 421.854 717.753 424.219 718.561 426.582C719.37 428.947 720.177 431.31 720.784 433.675C721.594 435.447 722.198 437.221 722.805 438.995C721.997 441.357 721.19 443.871 720.38 446.235C717.553 444.608 714.32 443.426 710.885 442.688C707.857 440.028 704.625 437.517 701.39 434.856C700.382 434.559 699.369 434.559 698.361 434.856C697.351 435.891 697.15 437.073 697.753 438.255C698.16 439.436 698.967 440.472 699.573 441.505C699.979 441.653 699.979 441.653 699.979 441.949C691.897 442.095 685.229 444.313 679.37 448.598C676.339 450.814 673.918 453.326 672.296 456.133C671.693 455.987 670.885 455.837 669.875 455.987L669.268 456.727C669.068 457.464 669.068 458.203 669.268 458.943C669.674 459.235 670.278 459.681 670.681 460.124C670.48 461.011 670.278 462.044 670.278 463.078C669.674 462.932 669.067 462.783 668.256 462.637C666.035 462.637 663.611 462.34 660.983 462.34C660.58 462.34 660.375 462.637 660.375 462.783C660.579 463.078 660.579 463.522 660.579 463.522C660.781 464.258 661.184 464.852 662.195 465.294C662.803 465.592 663.61 466.034 664.418 466.33C665.832 466.477 667.245 466.919 668.659 467.215C669.265 467.511 669.671 467.659 670.277 467.955C670.277 468.25 669.873 468.545 669.672 468.841C668.66 468.694 667.65 468.25 666.64 467.955C664.824 467.361 663.003 466.919 660.782 466.772C659.972 466.772 659.772 467.067 659.568 467.659C659.165 468.099 658.964 468.545 658.964 468.988C658.964 469.431 658.964 469.728 659.568 470.022C659.772 470.171 660.175 470.319 660.58 470.465C659.773 470.465 658.964 470.465 657.955 470.465C653.51 470.465 649.065 470.761 645.023 471.354V471.206C645.631 468.693 646.439 466.33 647.448 464.112C648.053 462.93 648.86 461.749 649.87 460.862C650.879 459.68 651.69 458.645 652.094 457.464C653.101 456.871 654.113 456.429 655.125 455.837C655.931 455.246 656.744 454.36 656.942 453.473C658.156 451.258 659.772 448.744 661.184 446.529C662.195 446.234 662.803 445.789 663.406 445.051C663.809 444.607 664.616 444.163 665.629 443.869C667.852 443.425 669.873 442.686 671.69 441.652C672.293 441.209 672.293 440.47 672.095 439.878C671.894 439.435 671.69 438.993 671.085 438.993C670.68 438.993 670.076 438.993 669.672 438.846C667.854 438.993 666.64 439.287 665.226 439.878C663.811 440.174 662.4 440.616 660.983 440.913C660.782 440.471 660.782 439.878 660.782 439.434C660.782 437.956 661.79 436.776 663.61 436.036C666.235 435.003 669.065 433.967 671.69 432.786C672.293 432.49 672.293 432.195 672.293 431.75C672.293 431.308 671.893 430.865 671.893 430.422C671.69 429.981 671.287 429.534 670.478 429.534C668.455 429.832 666.638 430.127 664.616 430.865C663 431.307 660.982 431.75 658.963 432.048C659.97 431.161 661.184 430.569 662.599 430.127C664.012 429.683 665.427 429.387 667.042 429.092C667.649 428.797 668.659 428.352 669.265 428.058C670.074 427.614 670.478 427.171 670.679 426.432C670.679 426.137 670.679 425.841 670.881 425.693C670.881 425.398 670.679 425.1 670.275 425.1C667.852 425.1 665.225 425.398 663 425.545C659.566 426.137 656.741 427.171 653.911 428.649C654.313 427.024 655.528 425.693 657.141 424.807C658.961 423.774 660.78 422.738 662.192 421.557C662.192 420.817 662.192 420.078 661.99 419.338L661.183 418.748C660.173 418.454 659.162 418.601 658.155 419.19C657.549 419.634 656.536 420.078 655.729 420.668C653.507 421.557 651.486 422.737 649.869 424.217C648.454 425.693 647.042 427.32 646.032 428.946C645.223 428.649 644.616 428.352 643.607 428.352C642.599 428.649 641.99 429.24 641.787 430.127C641.787 431.605 641.588 433.083 640.979 434.558C640.373 436.037 639.768 437.516 639.162 438.846C638.756 440.471 638.756 442.094 638.756 443.72C638.958 445.346 638.958 446.971 638.756 448.744C637.949 449.336 637.546 450.075 637.546 450.813C637.546 451.699 637.141 452.438 636.735 453.177C634.515 456.132 632.293 459.087 629.869 462.042C629.263 460.122 628.454 458.348 627.647 456.726C626.838 454.36 625.626 452.29 624.211 450.222C623.605 448.3 622.595 446.822 621.181 445.345C619.765 445.641 619.363 445.937 619.161 446.822C619.161 447.563 618.958 448.301 618.756 449.039C618.555 451.699 618.957 454.213 620.168 456.429C621.18 458.646 622.19 461.158 622.594 463.522C622.391 463.965 621.786 464.113 621.381 463.817C621.18 463.522 620.574 463.374 620.373 463.226C616.534 459.681 612.491 456.429 608.05 453.473C606.43 452.291 605.018 451.11 603.4 449.779C601.988 448.598 600.372 447.564 598.351 446.823C597.544 447.712 597.14 448.598 597.14 449.484C596.939 449.484 596.736 449.337 596.736 449.337C595.523 449.779 594.311 450.518 593.705 451.259C594.11 449.78 594.514 448.449 595.12 447.121C595.93 444.756 596.333 442.392 596.736 439.879C597.14 437.517 596.736 435.004 595.524 432.787C595.524 430.57 595.12 428.502 594.513 426.433C593.906 424.218 592.289 422.444 589.462 421.115C587.845 419.931 586.027 418.897 584.009 417.715C582.187 416.534 580.368 415.351 578.955 413.873C577.744 413.136 576.33 412.988 574.916 413.727C574.107 415.057 573.906 416.682 574.107 418.16C574.916 419.638 576.128 420.819 577.543 422.002C578.955 422.887 580.573 423.922 582.187 424.663C581.178 426.73 580.976 428.948 581.582 431.164C581.582 431.46 581.381 431.607 580.976 431.903C579.967 431.31 578.955 430.572 577.744 429.835C576.531 429.095 575.116 428.651 573.702 428.8C571.882 429.39 570.064 430.277 568.854 431.608C567.845 433.087 566.229 433.825 564.208 433.97C562.995 433.97 561.784 434.561 560.571 435.449C559.358 436.336 558.146 436.927 556.936 437.371C555.924 437.666 554.712 437.223 553.299 436.04C552.693 436.04 552.29 436.336 552.491 436.927C552.491 437.52 552.491 437.961 552.491 438.258C552.085 439.143 552.491 440.03 553.096 440.917C553.705 441.656 554.511 442.396 555.519 442.984C557.541 444.316 559.562 445.792 561.784 447.42C561.178 449.34 560.974 451.408 560.974 453.477C561.177 455.693 560.974 457.912 560.974 459.831C560.775 462.047 560.775 464.116 561.177 466.185C561.782 468.254 562.792 470.027 564.814 471.654C565.623 475.937 565.623 480.076 564.611 484.508C564.611 484.804 564.611 485.098 564.41 485.395C564.209 485.248 564.209 485.248 564.004 485.098C562.189 483.327 560.168 481.702 557.945 480.371C557.339 480.075 556.733 479.927 556.125 479.779C555.922 478.892 555.116 478.155 554.711 477.416C553.095 476.382 551.681 475.199 550.065 473.868C548.449 472.685 546.832 471.505 545.016 470.47L545.823 470.618C545.016 470.47 544.406 470.026 543.802 469.732C543.397 469.435 542.589 469.139 541.985 468.992C541.78 468.992 541.78 468.992 541.581 468.992C541.985 468.549 542.59 468.254 542.994 467.811C545.823 464.855 547.641 461.456 548.65 457.911C549.662 454.364 550.47 450.817 550.872 447.271C550.671 445.792 550.671 444.02 550.872 442.097C550.872 440.177 550.065 438.553 547.842 437.519C545.821 436.78 543.802 436.335 541.58 436.482C538.952 436.632 537.132 436.188 535.518 435.006C534.306 434.267 532.891 434.267 531.476 434.561C530.061 434.71 528.647 434.71 527.635 434.267C526.223 433.676 524.808 433.676 523.796 434.267C522.384 434.71 521.375 434.858 520.161 434.561C519.15 432.199 519.353 430.13 520.362 428.061C521.573 425.991 522.181 423.777 522.181 421.56C521.979 419.341 522.181 417.125 522.988 414.91C523.595 412.842 523.795 410.476 523.595 408.409C523.795 405.749 522.583 403.533 519.756 401.464C519.15 401.021 518.341 401.168 517.735 401.907C516.928 404.419 516.321 406.782 515.713 409.294C515.31 411.658 514.301 413.875 513.086 416.239C510.662 419.787 508.843 423.629 507.432 427.47C506.217 431.311 503.996 435.006 501.167 438.403C498.54 443.428 498.743 448.304 501.973 453.181C503.996 457.91 505.409 462.785 506.217 467.958C506.016 467.958 505.409 468.253 505.208 468.253C503.996 468.991 502.582 469.878 501.369 470.617C499.954 471.504 498.743 472.242 497.936 473.129C497.533 473.72 497.328 474.164 497.129 474.461C496.723 474.903 496.32 475.346 496.118 475.936C495.109 476.824 494.298 477.859 493.894 479.188C493.491 480.371 493.29 481.551 492.887 482.734C492.481 483.326 492.278 483.769 492.08 484.212C491.472 478.598 491.068 472.983 490.259 467.219C490.863 464.56 490.863 461.9 490.863 459.239C492.684 455.693 493.088 451.851 491.875 448.01C491.875 446.827 492.08 445.499 492.278 444.318C492.479 442.84 492.479 441.658 492.278 440.328C489.451 438.111 486.018 437.077 481.571 437.224C479.147 436.041 476.521 435.303 473.693 435.303C474.298 433.826 475.106 432.348 475.713 430.87C476.317 429.687 476.723 428.506 476.925 427.176C477.125 426.142 476.925 424.812 475.914 423.779C473.49 423.335 471.067 422.743 468.44 422.152C467.835 420.822 467.028 419.789 466.016 418.606C463.794 417.718 461.573 417.423 458.742 417.423C458.138 417.718 457.733 417.718 457.125 417.718C456.723 417.718 456.116 417.866 455.713 418.162C452.074 418.015 449.044 418.605 446.62 420.083C441.974 419.935 438.541 420.969 435.711 423.187C435.511 424.515 435.511 425.698 435.711 427.176C435.913 428.357 436.318 429.539 436.318 430.87C434.903 434.712 435.511 438.404 437.327 442.099C437.125 444.76 437.327 447.421 437.732 450.228C436.924 457.913 435.912 465.742 434.903 473.722C434.095 479.486 433.891 485.396 434.299 491.158C434.299 493.967 434.701 496.626 435.105 499.287C434.701 498.252 434.498 497.365 434.095 496.331C433.689 495.15 433.083 493.967 431.87 493.08C431.672 492.49 431.47 492.046 431.064 491.602C430.66 491.158 430.459 490.863 430.256 490.419C429.244 489.385 428.236 488.648 426.619 487.76C425.407 487.022 424.196 486.282 422.778 485.545C422.579 485.248 422.175 485.248 421.567 485.099C422.579 480.077 424.195 475.053 426.214 470.325C429.244 465.597 429.448 460.57 426.821 455.694C423.995 452.297 421.769 448.603 420.558 444.612C419.141 440.771 417.326 436.928 414.901 433.531C413.486 431.018 412.68 428.654 412.275 426.437C411.668 423.924 411.263 421.562 410.256 419.048C409.647 418.31 409.041 418.162 408.235 418.606C405.403 420.673 404.193 422.889 404.391 425.55C404.193 427.766 404.391 429.986 405.204 432.053C405.808 434.269 406.012 436.484 405.808 438.702C406.012 440.918 406.617 443.134 407.628 445.056C408.84 447.273 409.043 449.341 408.032 451.704C406.818 452.002 405.608 452.002 404.391 451.409C403.183 450.818 401.768 450.818 400.555 451.263C399.141 451.852 397.93 452.002 396.714 451.704C395.1 451.263 393.888 451.557 392.675 452.296C391.061 453.33 389.037 453.773 386.616 453.773C384.19 453.478 382.168 453.773 380.351 454.66C378.129 455.694 376.915 457.173 377.117 459.24C377.323 461.163 377.323 462.936 377.117 464.263C377.521 467.96 378.533 471.506 379.542 475.053C380.553 478.599 382.167 481.851 384.998 484.951C385.603 485.248 386.007 485.692 386.614 486.134C386.409 486.134 386.208 486.134 386.007 486.282C385.402 486.282 384.796 486.577 384.189 487.021C383.582 487.167 382.978 487.464 382.372 487.759H382.978C381.159 488.647 379.542 489.827 378.129 491.156C376.512 492.191 374.896 493.52 373.482 494.556C372.675 495.294 372.067 496.181 371.865 497.069C371.461 497.956 371.058 498.84 370.653 499.58C370.451 500.17 370.451 500.763 370.451 501.352C370.251 501.944 370.047 502.536 369.442 502.979C367.827 504.013 366.211 504.899 364.391 505.934C363.986 504.455 363.784 502.979 363.382 501.5C362.37 497.217 362.37 493.077 363.382 488.939C365.199 487.165 366.411 485.393 366.815 483.325C367.018 481.255 367.217 479.04 367.018 477.119C366.815 474.903 366.815 472.981 366.815 470.765C367.018 468.548 366.815 466.481 366.411 464.559C368.433 462.934 370.654 461.455 372.675 460.126C373.482 459.386 374.29 458.648 374.897 457.91C375.706 457.17 375.907 456.431 375.706 455.396C375.706 454.954 375.706 454.657 375.706 454.067C375.907 453.475 375.504 453.18 374.897 453.18C373.483 454.363 372.068 454.805 371.058 454.509C370.047 454.067 368.836 453.475 367.421 452.738C366.411 451.702 364.997 451.26 363.784 450.963C361.765 450.817 360.348 450.226 359.138 448.747C357.924 447.419 356.308 446.384 354.29 446.087C352.875 445.791 351.663 446.087 350.248 446.974C349.239 447.714 348.026 448.304 347.015 449.042C346.613 448.747 346.613 448.601 346.613 448.304C347.218 446.087 346.812 443.872 345.803 441.802C347.622 441.064 349.034 440.177 350.652 438.996C352.067 437.96 353.278 436.779 353.884 435.301C354.29 433.824 353.884 432.198 353.077 430.868C351.663 430.13 350.248 430.13 349.034 431.015C347.824 432.493 346.006 433.675 344.186 434.857C342.166 436.039 340.147 437.221 338.53 438.256C335.906 439.585 334.086 441.358 333.479 443.574C332.67 445.643 332.471 447.86 332.471 449.78C331.256 452.293 330.852 454.656 331.256 457.021C331.659 459.533 332.064 461.897 332.873 464.259C334.085 466.774 334.69 469.581 335.095 472.388C335.498 474.459 336.104 476.082 337.116 477.857C336.509 477.857 336.105 477.857 335.701 477.857C334.487 478.005 333.478 478.153 332.47 478.298C328.427 480.072 324.385 481.847 320.348 483.767C319.538 484.209 318.931 484.209 318.327 483.767C318.122 482.141 318.528 480.811 319.942 479.629C321.358 478.298 322.366 477.117 322.974 475.934C324.387 474.902 326.003 473.866 327.618 472.98C329.034 471.945 330.043 470.763 330.65 469.433C331.457 467.512 331.052 465.593 329.841 464.114C327.819 464.853 326.003 465.738 324.588 467.069C322.973 468.252 321.558 469.433 319.94 470.763C315.495 473.571 311.454 476.822 307.818 480.368C307.415 480.368 307.012 480.663 306.606 480.959C306.202 481.253 305.799 481.105 305.394 480.663C305.999 478.298 306.807 475.934 308.021 473.57C309.232 471.207 309.434 468.694 309.232 466.035C309.232 465.443 308.829 464.704 308.829 463.966C308.829 463.078 308.223 462.637 307.012 462.637C305.597 463.966 304.385 465.593 303.778 467.216C302.364 469.433 301.354 471.502 300.345 473.865C299.536 475.639 298.728 477.413 298.123 479.038C295.698 476.082 293.678 473.127 291.455 470.173C291.052 469.581 290.648 468.694 290.648 467.956C290.446 467.068 290.041 466.478 289.233 465.737C289.031 464.113 289.031 462.487 289.233 460.863C289.434 459.235 289.233 457.611 289.031 455.987C288.224 454.655 287.616 453.178 287.211 451.7C286.607 450.223 286.202 448.745 286.202 447.268C286 446.381 285.393 445.789 284.382 445.346C283.576 445.494 282.768 445.788 281.958 446.084C280.946 444.459 279.534 442.835 278.119 441.355C276.504 439.877 274.483 438.697 272.463 437.662C271.451 437.219 270.643 436.776 269.836 436.332C268.824 435.742 267.815 435.742 266.603 435.89L266.199 436.479C265.796 437.219 265.796 437.958 265.998 438.698C267.413 439.879 269.031 440.914 270.644 441.949C272.665 442.836 273.677 444.164 273.878 445.789C271.451 444.313 268.422 443.13 265.19 442.687C262.766 442.54 260.341 442.392 257.714 442.094C257.312 442.392 257.107 442.392 257.312 442.835C257.312 443.129 257.312 443.425 257.312 443.572C257.513 444.312 258.119 444.902 258.927 445.345C259.534 445.641 260.342 445.937 261.149 446.38C262.565 446.38 264.181 446.821 265.393 447.267C266.808 447.563 268.018 448.3 269.23 449.335C267.211 449.038 265.192 448.597 263.373 447.857C261.553 447.266 259.535 446.821 257.514 446.676C256.906 446.821 256.302 447.118 256.302 447.562C256.099 448.003 255.898 448.447 255.696 449.038C255.696 449.335 255.898 449.631 256.302 450.074C259.129 450.959 261.756 452.143 264.385 453.177C266.403 453.916 267.212 455.098 267.415 456.575C267.415 457.166 267.415 457.609 267.212 458.053C265.595 457.759 264.183 457.463 262.968 456.87C261.553 456.428 260.141 456.132 258.523 455.985C258.122 456.131 257.516 456.131 257.11 456.131C256.504 456.279 256.101 456.574 255.898 456.869C255.696 457.608 255.898 458.2 256.302 458.94C258.323 459.825 260.342 460.562 262.363 461.007C263.373 461.154 264.183 461.599 264.585 462.336C265.393 462.928 265.998 463.519 266.808 463.814C268.422 466.032 269.837 468.248 271.052 470.759C271.452 471.498 272.061 472.384 273.07 472.976C273.879 473.567 274.888 474.159 275.897 474.455C276.303 475.636 277.111 476.817 278.119 477.852C279.131 478.885 279.937 480.068 280.543 481.248C281.555 483.466 282.564 485.977 282.967 488.344C283.574 490.854 284.18 493.365 285.192 495.582C286.806 501.493 289.03 507.107 291.857 512.724C292.059 513.314 292.26 513.758 292.665 514.35C292.665 514.94 292.869 515.533 292.869 516.271C288.626 518.488 284.988 521.148 281.352 524.101C280.946 524.249 280.341 524.398 279.736 524.545C279.131 524.545 278.525 524.693 278.119 524.988L274.483 526.316C270.442 526.464 266.603 526.613 263.169 527.057C262.361 527.057 261.754 527.057 261.351 526.761C260.544 526.613 259.939 526.464 259.332 526.464C257.714 526.022 256.3 525.874 254.683 525.874C254.278 525.726 254.077 525.282 253.875 525.135C253.472 524.693 253.471 524.397 253.674 524.1C254.887 523.215 255.492 522.329 256.3 521.442C257.918 520.258 259.332 519.077 260.14 517.599C261.147 516.27 261.754 514.792 262.158 513.166C262.564 512.279 263.169 511.393 263.372 510.655C263.372 509.62 263.774 508.732 263.977 507.844C263.977 506.959 264.181 505.925 264.181 504.89C264.384 503.708 264.384 502.822 264.181 501.789C263.372 500.458 263.169 498.977 263.372 497.502C263.372 496.614 263.372 495.876 262.967 495.139C262.361 494.399 262.158 493.511 261.754 492.626C261.351 491.74 261.149 490.852 260.948 489.817C260.544 488.93 260.141 487.897 259.128 487.156C259.128 486.715 258.724 486.418 258.321 486.123C258.12 485.682 257.918 485.385 257.715 484.94C257.108 484.202 256.099 483.612 255.088 483.021C254.08 482.281 253.067 481.839 252.059 481.098C250.444 480.656 249.23 480.361 247.818 480.361C246.2 480.361 244.785 480.361 243.374 480.065C242.16 479.917 241.151 479.769 239.938 479.622C238.727 479.475 237.513 479.475 236.303 479.622C234.08 480.361 231.858 480.804 229.434 480.952C227.011 481.246 224.788 481.395 222.361 481.692C221.755 481.839 221.15 481.987 220.949 482.281C220.545 482.578 219.94 482.724 219.331 483.021H219.94C218.523 483.759 217.109 484.645 215.898 485.681C214.687 486.714 213.474 487.453 212.26 488.488C211.654 489.079 211.251 489.669 210.847 490.408C210.646 491.146 210.444 491.887 209.838 492.478C209.838 492.92 209.635 493.363 209.635 493.806C209.635 494.398 209.432 494.84 209.029 495.138C208.222 495.579 207.209 496.024 206.605 496.614C208.827 492.626 210.444 488.191 211.251 483.464C211.654 481.84 211.654 479.917 211.856 478.291C211.856 476.372 212.26 474.598 213.071 472.973C217.919 468.094 222.969 463.368 228.423 458.64C229.028 457.605 229.839 456.571 230.242 455.388C231.053 454.207 230.645 453.024 229.839 451.992C228.83 451.694 227.818 451.694 226.806 451.992C222.767 454.946 218.928 458.197 215.292 461.447C213.877 462.038 212.464 462.777 211.251 463.811C210.038 464.994 208.624 465.289 206.605 464.846C205.19 464.107 204.383 463.072 203.978 461.89C204.584 458.048 205.798 454.355 207.209 450.808C208.02 448.443 208.624 446.079 209.635 443.714C210.444 441.35 210.038 438.987 209.029 436.771C208.222 436.473 207.209 436.179 206.403 436.179C204.584 436.771 203.575 437.657 202.969 438.988C201.552 442.238 200.341 445.636 199.533 448.739C198.523 452.139 197.513 455.537 196.098 458.937L195.694 459.083C195.09 459.378 194.483 459.526 193.874 459.378C193.068 458.197 192.865 456.866 193.068 455.389C193.471 454.06 193.471 452.731 193.471 451.4C193.471 447.854 194.282 444.308 195.493 440.761C196.706 437.214 197.111 433.668 196.504 430.122C196.098 429.827 195.493 429.529 195.09 429.529C194.484 429.529 193.876 429.529 193.471 429.382C191.856 429.827 190.845 430.861 189.837 431.896C188.825 433.079 188.422 434.259 188.017 435.293C186.603 438.692 185.593 442.238 184.785 446.079C184.179 449.773 183.571 453.468 183.37 457.015L181.349 458.198C180.542 458.198 179.937 458.198 179.733 457.903C179.328 457.606 178.923 457.163 178.723 456.572C177.307 451.548 174.883 446.818 171.651 442.09C171.248 440.319 170.844 438.694 170.034 436.919C169.632 434.999 168.218 433.522 166.6 432.044C165.185 431.746 163.975 431.897 162.56 432.486C162.56 433.963 162.761 435.441 163.37 436.919C163.975 438.25 164.379 439.728 164.782 441.205C164.782 444.013 165.185 446.818 166.198 449.628C167.005 452.287 168.219 455.095 169.227 457.756C170.237 459.677 170.643 461.598 170.643 463.665C170.643 465.588 170.643 467.804 170.237 469.725C170.035 470.462 169.632 470.758 168.825 470.758C168.014 470.758 167.005 470.462 166.602 470.316C164.581 468.542 162.763 466.769 160.745 464.996C158.926 463.223 156.905 461.599 154.682 460.414C153.471 459.678 152.258 459.38 150.641 459.085C149.228 458.79 148.015 458.939 146.599 459.678C145.993 460.562 145.993 461.303 146.8 462.04C149.63 463.813 152.257 465.882 154.277 468.247C156.499 470.611 158.114 473.123 158.923 475.636C160.742 478.294 163.167 480.511 166.197 482.432C169.025 484.205 171.246 486.421 172.862 489.23C174.278 489.821 175.49 490.709 176.298 491.594C177.512 500.609 177.307 509.622 176.097 519.078C174.681 528.388 174.278 537.697 175.087 546.71C175.49 554.838 178.117 562.818 182.764 570.501C186.197 576.264 190.239 581.88 194.886 587.494V591.632V611.58H1136.57V590.45C1141.02 584.835 1145.06 579.219 1148.5 573.456C1153.14 565.771 1155.77 557.794 1156.17 549.518C1156.98 540.505 1156.58 531.342 1155.16 522.035C1154.15 514.795 1153.95 507.702 1154.36 500.757C1155.16 498.834 1155.77 496.767 1155.97 494.697C1155.97 494.402 1156.17 493.959 1156.17 493.664C1156.78 493.072 1157.59 492.63 1158.39 492.185C1160.01 489.377 1162.24 487.16 1165.26 485.241C1168.09 483.468 1170.31 481.25 1172.34 478.592C1173.14 476.079 1174.76 473.568 1176.98 471.204C1179.2 468.839 1181.63 466.77 1184.66 464.997C1185.06 464.256 1185.26 463.519 1184.66 462.634C1183.45 461.894 1182.03 461.6 1180.62 462.041C1179 462.337 1177.79 462.634 1176.78 463.224C1174.36 464.554 1172.33 466.179 1170.52 467.953C1168.7 469.726 1166.68 471.499 1164.86 473.124C1164.25 473.42 1163.24 473.567 1162.63 473.715C1161.83 473.715 1161.22 473.42 1161.02 472.68C1160.82 470.613 1160.61 468.543 1160.61 466.624C1160.61 464.554 1161.02 462.634 1162.03 460.711C1163.24 457.905 1164.25 455.244 1165.06 452.437C1166.07 449.777 1166.48 446.821 1166.48 444.015C1166.88 442.685 1167.28 441.207 1167.89 439.73C1168.49 438.398 1168.7 436.921 1168.7 435.444C1167.28 434.706 1166.07 434.706 1164.65 435.002C1162.84 436.478 1161.83 437.956 1161.22 439.877C1160.61 441.651 1160.01 443.277 1159.6 445.05C1157.18 448.3 1155.36 451.846 1154.15 455.393C1153.14 448.004 1152.33 440.47 1151.93 432.932C1153.74 430.569 1154.96 427.909 1155.16 425.099C1155.56 422.146 1156.37 419.486 1157.58 416.827C1158.19 414.612 1158.8 412.248 1159.2 409.734C1159.6 407.223 1159.2 404.858 1157.99 402.494C1158.19 400.425 1157.58 398.357 1156.98 396.14C1156.17 394.072 1154.55 392.299 1151.93 390.969C1150.11 389.785 1148.29 388.752 1146.47 387.421C1144.45 386.387 1142.63 385.058 1141.42 383.728C1140.01 382.841 1138.8 382.841 1137.38 383.58C1136.37 384.912 1136.17 386.388 1136.57 388.014C1137.38 389.492 1138.39 390.526 1140.01 391.709C1141.42 392.742 1143.04 393.628 1144.45 394.517C1143.44 396.437 1143.44 398.652 1144.05 400.869C1144.05 401.166 1143.85 401.462 1143.44 401.608C1142.43 401.018 1141.22 400.426 1140.01 399.541C1139 398.802 1137.58 398.506 1136.17 398.652C1134.15 399.097 1132.53 399.983 1131.32 401.462C1130.31 402.791 1128.49 403.531 1126.67 403.677C1125.26 403.824 1124.05 404.417 1122.83 405.156C1121.82 406.043 1120.61 406.634 1119.4 407.077C1118.19 407.373 1116.98 407.077 1115.76 405.748C1114.95 405.894 1114.75 406.043 1114.75 406.634C1114.75 407.227 1114.75 407.669 1114.75 408.113C1114.55 408.999 1114.75 409.738 1115.56 410.476C1116.17 411.363 1116.77 412.102 1117.78 412.693C1119.8 414.022 1121.82 415.5 1124.05 417.126C1123.64 419.194 1123.64 421.266 1123.64 423.333C1123.64 425.401 1123.64 427.617 1123.24 429.687C1123.24 431.754 1123.24 433.826 1123.84 436.041C1123.84 437.224 1124.25 438.259 1125.06 439.292C1125.06 439.144 1124.85 439.144 1124.85 439.144C1123.84 439.144 1123.24 439.44 1122.23 439.737C1121.22 441.954 1121.01 444.318 1121.82 446.534C1122.43 449.045 1123.24 451.41 1124.05 453.773C1124.85 455.399 1125.26 457.172 1125.87 458.948C1125.26 461.458 1124.45 463.822 1123.84 466.336C1120.81 464.709 1117.58 463.527 1114.15 462.788C1111.11 460.129 1107.88 457.47 1104.65 454.957C1103.64 454.513 1102.63 454.513 1101.62 454.957C1100.61 455.992 1100.41 457.173 1101.02 458.208C1101.62 459.389 1102.02 460.57 1103.03 461.607C1103.03 461.607 1103.03 461.754 1103.44 461.901C1095.36 462.196 1088.49 464.416 1082.43 468.699C1076.37 473.132 1073.34 478.747 1073.34 485.099C1073.34 485.987 1073.34 487.022 1073.54 487.909C1073.34 488.353 1073.14 488.648 1072.73 488.942C1072.53 489.238 1072.33 489.68 1072.13 490.124C1071.72 490.42 1071.31 490.717 1071.31 491.012C1068.08 490.717 1064.65 490.42 1061.21 490.42C1056.57 490.42 1052.32 490.717 1048.28 491.456C1048.28 491.456 1048.28 491.456 1048.28 491.306C1048.89 488.794 1049.5 486.43 1050.71 484.214C1051.11 483.033 1052.12 481.852 1053.13 480.816C1054.14 479.782 1054.95 478.6 1055.55 477.419C1056.57 477.123 1057.58 476.532 1058.38 475.94C1059.19 475.203 1059.8 474.465 1060.2 473.724C1061.42 471.213 1062.83 468.995 1064.65 466.633C1065.25 466.337 1066.06 465.743 1066.67 465.301C1067.27 464.563 1067.88 464.119 1068.89 463.972C1071.11 463.529 1073.13 462.789 1075.15 461.756C1075.35 461.164 1075.35 460.571 1075.35 459.834C1075.15 459.39 1074.75 459.095 1074.34 459.095C1073.74 459.095 1073.34 459.095 1072.73 458.949C1071.31 459.095 1069.7 459.389 1068.48 459.834C1067.07 460.424 1065.66 460.72 1064.24 460.869C1063.84 460.571 1063.84 459.981 1063.84 459.538C1064.04 457.914 1065.05 456.878 1066.66 456.14C1069.7 454.958 1072.32 453.924 1075.15 452.891C1075.35 452.594 1075.76 452.298 1075.55 451.854C1075.35 451.412 1075.35 450.967 1075.15 450.524C1074.95 450.083 1074.34 449.786 1073.74 449.491C1071.72 449.786 1069.7 450.23 1067.87 450.821C1066.06 451.559 1064.24 452.005 1062.22 452.152C1063.23 451.265 1064.65 450.524 1065.86 450.23C1067.27 449.786 1068.68 449.343 1070.3 449.195C1070.91 448.901 1071.72 448.605 1072.53 448.162C1073.33 447.719 1073.74 447.275 1073.94 446.389C1073.94 446.389 1073.94 446.092 1074.14 445.796C1074.14 445.354 1073.94 445.205 1073.73 445.059C1071.11 445.354 1068.48 445.354 1066.06 445.65C1062.83 446.092 1059.8 447.276 1057.17 448.753C1057.57 447.129 1058.58 445.797 1060.6 444.911C1062.22 443.878 1063.83 442.844 1065.25 441.661C1065.66 440.922 1065.66 440.182 1065.25 439.443L1064.65 438.854C1063.43 438.706 1062.42 438.706 1061.61 439.147C1060.6 439.74 1059.8 440.182 1058.99 440.625C1056.56 441.661 1054.74 442.844 1053.13 444.321C1051.51 445.797 1050.5 447.425 1049.29 449.048C1048.48 448.753 1047.67 448.457 1047.07 448.31C1045.85 448.753 1045.25 449.345 1045.05 450.232C1045.05 451.709 1044.84 453.187 1044.24 454.664C1043.63 456.143 1043.03 457.474 1042.42 458.952C1042.02 460.574 1042.02 462.053 1042.02 463.826C1042.22 465.304 1042.22 467.077 1042.02 468.703C1041.2 469.441 1040.8 470.032 1040.8 470.919C1040.8 471.659 1040.4 472.397 1039.79 473.136C1037.57 476.091 1035.35 479.047 1033.33 482.003C1032.32 480.377 1031.71 478.455 1030.9 476.684C1030.1 474.468 1028.88 472.397 1027.47 470.182C1026.86 468.555 1025.85 466.929 1024.23 465.453C1023.23 465.602 1022.42 466.045 1022.42 466.783C1022.22 467.521 1022.22 468.261 1022.02 468.999C1021.81 471.66 1022.22 474.172 1023.23 476.536C1024.44 478.899 1025.25 481.263 1025.85 483.629C1025.45 484.072 1025.25 484.219 1024.64 483.776C1024.23 483.629 1023.83 483.333 1023.43 483.333C1019.79 479.786 1015.75 476.389 1011.31 473.58C1009.69 472.397 1008.28 471.217 1006.66 470.033C1005.25 468.704 1003.43 467.67 1001.61 466.929C1000.2 468.555 999.993 470.329 1000.6 472.249C1001.2 473.579 1002.22 474.91 1003.63 475.942C1005.25 476.83 1006.66 477.865 1008.28 478.751C1009.09 480.081 1010.09 481.262 1011.31 482.444C1012.72 483.628 1013.13 484.956 1013.13 486.73C1012.52 487.026 1011.71 487.026 1011.1 486.73C1006.86 484.809 1002.82 483.037 998.982 481.261C997.974 481.114 996.76 480.967 995.548 480.819C994.944 480.819 994.539 480.819 994.334 480.819C995.345 479.047 995.953 477.273 996.157 475.352C996.559 472.396 997.166 469.738 998.578 467.077C998.982 464.861 999.589 462.348 999.993 459.984C1000.4 457.62 999.993 455.108 998.78 452.745C998.98 450.674 998.578 448.607 997.973 446.391C997.166 444.323 995.548 442.549 992.923 441.219C990.901 440.184 989.081 439.003 987.063 437.672C985.25 436.627 983.634 435.444 982.423 433.965ZM992.525 483.321C993.13 484.799 994.546 486.276 996.566 487.161C999.392 488.641 1001.82 490.117 1004.04 491.892C1004.65 492.038 1005.05 492.334 1005.66 492.925C1005.25 494.109 1005.25 495.143 1005.66 496.473C1006.06 497.801 1006.06 498.982 1006.06 500.315C1004.65 501.053 1003.03 501.2 1001.42 501.053C998.99 499.574 996.567 498.097 994.342 496.324C994.141 496.177 993.939 496.029 993.536 495.881C993.131 491.595 992.93 487.458 992.525 483.321ZM1000.4 509.326C999.595 513.022 999.799 516.716 1000.6 519.968C999.392 521.151 998.381 522.332 997.173 523.661C996.97 523.808 996.97 524.103 996.97 524.252C996.363 518.046 995.758 511.84 994.95 505.93C994.95 505.487 994.749 504.895 994.749 504.451C996.566 506.224 998.585 507.848 1000.4 509.326ZM493.301 515.237C493.301 514.054 493.502 512.874 493.502 511.545C494.108 512.283 494.309 513.023 494.917 513.761C495.32 514.649 496.128 515.535 496.935 516.274C495.521 515.829 494.31 515.534 493.301 515.237ZM467.037 464.85V467.509C469.054 468.987 470.066 470.76 470.471 472.68C470.873 474.749 471.076 476.672 471.076 478.74C470.673 484.207 469.054 489.674 466.835 494.845C466.633 494.403 466.633 494.109 466.429 493.664C465.621 488.195 464.005 483.025 461.582 477.704C458.954 472.533 457.338 467.213 456.933 461.6C456.933 460.121 457.134 458.644 457.338 457.165C458.148 458.2 458.954 459.086 459.764 460.121C462.593 461.6 465.014 463.076 467.037 464.85ZM437.134 507.11C437.941 510.064 438.752 513.316 439.558 516.273C439.558 518.635 440.569 520.852 441.78 522.92C442.992 525.138 445.012 526.764 447.84 528.241C448.852 528.832 449.66 529.127 450.468 529.719V531.048C445.819 530.606 441.376 530.901 436.73 531.787C436.326 531.935 435.92 531.935 435.518 532.083C435.315 531.048 434.709 530.31 434.305 529.422C434.707 528.094 435.313 526.764 435.518 525.434C436.325 524.4 436.73 523.218 437.133 522.183C437.335 521.002 437.538 519.967 437.94 518.635C437.94 517.453 437.94 516.273 438.346 515.089C438.548 513.76 438.548 512.577 438.142 511.247C437.539 509.918 437.134 508.441 437.134 507.11ZM327.432 488.935C329.451 487.31 331.874 485.831 334.703 484.354C336.725 483.321 338.139 481.992 338.542 480.366C338.341 484.503 338.139 488.787 337.732 492.926C337.329 493.073 337.129 493.222 336.924 493.368C334.703 495.143 332.484 496.619 330.058 498.097C328.24 498.244 326.622 498.097 325.412 497.506C325.006 496.176 325.208 494.845 325.612 493.664C326.016 492.185 326.016 491.15 325.612 490.116C326.016 489.527 326.622 489.231 327.432 488.935ZM329.451 520.705C331.269 516.272 331.874 511.544 331.067 506.372C332.887 504.893 334.703 503.268 336.521 501.643C336.521 501.939 336.521 502.531 336.521 502.974C335.512 510.361 334.703 517.896 334.098 525.58C333.694 531.048 333.896 536.517 334.5 542.132C334.5 542.132 334.5 542.279 334.5 542.427H324.198C323.996 541.393 323.591 540.062 323.189 539.028C322.38 537.107 322.38 535.483 322.988 533.562C325.005 529.422 327.432 525.138 329.451 520.705ZM214.292 514.352C214.091 514.795 214.091 515.386 214.698 515.83C215.101 516.273 215.504 516.716 216.11 517.012C216.918 517.603 217.119 518.193 217.119 518.932C217.119 519.671 217.119 520.411 216.918 521.151V521.297C216.312 521.297 215.909 521.151 215.504 520.854C215.101 520.708 214.897 520.412 214.493 520.117C213.08 519.082 211.665 518.048 210.048 517.013C209.442 516.717 208.836 516.423 208.231 516.127C208.03 515.091 207.623 513.909 207.219 512.875C207.623 512.579 207.827 512.284 208.03 512.137C209.241 511.104 210.454 510.066 211.26 509.033C211.463 509.921 211.664 510.806 211.866 511.842L214.292 514.352ZM373.091 523.66L375.31 525.877C374.099 527.207 373.091 528.535 372.484 530.016C371.472 527.502 370.868 525.138 370.058 522.774C370.868 522.036 371.472 521.15 372.28 520.115C372.485 521.445 372.889 522.477 373.091 523.66ZM863.022 480.218C865.647 481.697 868.275 483.321 870.294 484.798V487.753C872.314 489.083 873.324 490.856 873.726 492.776C873.931 494.844 874.333 496.766 874.333 498.834C873.931 504.449 872.313 509.623 869.891 514.795C869.689 514.352 869.689 514.054 869.689 513.76C868.879 508.292 867.266 502.974 864.637 497.801C862.213 492.63 860.597 487.16 860.191 481.546C860.191 480.069 860.394 478.592 860.597 477.114C861.406 478.295 862.213 479.33 863.022 480.218ZM841.403 531.198C840.797 530.016 840.394 528.684 840.394 527.208C841.403 530.311 842.012 533.265 842.817 536.367C843.019 538.882 843.629 540.949 845.041 543.017C846.254 545.088 848.476 546.861 851.102 548.19C852.111 548.78 852.918 549.372 853.729 549.816V550.998C849.082 550.703 844.436 550.998 839.991 551.885C839.384 551.885 839.183 552.032 838.778 552.179C838.372 551.146 837.969 550.259 837.364 549.372C837.969 548.042 838.576 546.712 838.982 545.384C839.585 544.349 839.991 543.314 840.394 542.133C840.595 540.949 841.001 539.914 841.203 538.882C841.203 537.699 841.403 536.367 841.403 535.04C841.605 533.858 841.605 532.527 841.403 531.198ZM775.543 540.358C775.742 541.393 776.147 542.575 776.349 543.609L778.574 545.974C777.357 547.304 776.349 548.632 775.744 550.111C774.736 547.599 773.925 545.089 773.118 542.87C774.126 541.983 774.735 541.245 775.543 540.358ZM896.963 531.787C897.165 532.526 897.568 533.116 897.976 533.857C898.579 534.742 899.387 535.482 899.997 536.222C898.985 535.924 897.57 535.482 896.559 535.184C896.559 534.003 896.759 532.823 896.963 531.787ZM599.973 455.244C600.178 455.391 600.377 455.686 600.578 455.686C602.196 456.724 603.406 457.757 605.023 458.643C605.224 459.085 605.428 459.529 605.629 459.825C605.226 461.599 604.417 463.223 604.014 464.849C601.993 463.962 600.176 463.075 598.154 462.336C598.355 461.746 598.355 461.303 598.557 460.859C599.166 459.086 599.772 457.165 599.973 455.244ZM596.338 475.637C596.538 474.159 596.742 472.68 596.742 471.499C596.742 470.76 596.742 469.873 596.944 469.134C598.155 470.021 599.368 470.907 600.58 471.795C601.188 471.941 601.389 471.941 601.591 472.237C601.188 474.456 600.379 476.672 599.37 478.886L598.966 479.329C598.358 479.625 597.551 479.625 597.146 479.477C596.338 478.295 596.136 476.967 596.338 475.637Z" fill="black"/>
<g clip-path="url(#clip1_0_1)">
<path d="M933.732 242.74C932.7 242.711 931.677 243.091 931.588 243.714L930.729 244.533C929.193 244.769 927.475 247.209 926.101 248.612C923.53 250.147 921.789 251.674 919.608 254.267C919.507 254.295 919.404 254.318 919.297 254.331C918.314 254.758 917.414 255.624 916.589 256.393C915.969 256.124 914.852 255.019 913.86 253.658C912.146 251.309 909.042 248.723 906.585 247.471C906.456 247.371 906.328 247.267 906.198 247.167C906.079 247.15 905.956 247.143 905.836 247.129C905.548 247.009 905.27 246.908 905.014 246.839C904.4 246.674 903.4 246.844 902.254 247.216C900.763 247.495 899.306 248.108 897.992 249.171C897.877 249.238 897.763 249.305 897.651 249.372C896.959 249.545 896.382 250.036 895.841 250.622C895.157 251.174 894.667 251.699 894.519 252.126C894.078 252.601 893.62 253.017 893.093 253.233C892.173 254.403 890.965 254.872 889.982 255.747C889.394 257.207 888.356 256.674 887.484 257.663C886.744 258.079 886.021 258.402 885.507 259.221C884.023 259.685 882.624 260.996 880.433 263.961C880.277 264.046 880.122 264.134 879.962 264.207C877.976 265.477 876.8 268.223 875.101 269.93C874.226 271.205 873.215 272.187 872.135 272.971C871.191 274.404 870.155 276.044 869.665 277.58C868.682 278.039 867.988 279.508 867.176 280.731C866.925 281.047 866.678 281.367 866.422 281.707C866.123 282.025 865.799 282.28 865.434 282.423C864.26 283.685 862.885 284.825 862.006 286.368C861.604 287.06 861.34 288.185 860.837 288.544C860.198 288.823 859.528 289.303 858.811 289.522C858.004 292.157 855.753 292.6 855.203 295.397C853.835 297.933 852.086 300.2 850.91 302.958C850.354 306.889 848.457 309.765 846.955 313.008C845.601 315.078 844.71 317.544 843.617 319.856C842.345 322.068 840.685 323.632 839.792 326.229C838.461 327.96 837.158 329.953 835.76 331.484C834.18 333.058 833.267 335.096 832.548 337.656C830.967 340.455 829.353 343.238 828.241 346.485C827.228 347.691 826.599 349.343 825.796 350.744C824.964 351.544 825.214 353.155 824.41 353.777C823.609 354.258 823.641 355.929 823.228 356.649C822.799 357.284 822.5 358.325 821.598 358.951C820.43 361.451 819.16 363.717 818.213 366.438C817.442 368.982 815.878 370.586 815.067 373.123C813.781 375.457 813.197 378.292 811.724 380.422C811.691 383.089 809.551 384.062 809.219 386.535C808.324 387.291 808.733 388.811 807.864 390.009C807.263 391.3 806.575 392.568 806.243 394.059C805.555 395.735 804.856 397.617 804.235 399.465C803.404 400.827 802.574 402.188 802.195 403.996C801.86 405.579 801.162 406.908 800.653 408.232C800.617 409.105 800.636 409.941 800.612 410.763C800.596 410.849 800.577 410.929 800.561 411.015C800.414 411.833 800.297 412.671 800.202 413.548C800.033 414.252 800.015 414.977 800.031 415.711C799.979 416.702 799.954 417.758 799.966 418.926C799.963 418.943 799.962 418.96 799.959 418.978C799.899 419.441 799.929 419.881 800 420.31C800 420.31 800 420.311 800 420.31C800.052 422.026 800.168 423.969 800.355 426.211C800.334 427.617 800.433 429.017 800.746 430.355C800.955 432.384 801.21 434.636 801.513 437.13C801.447 438.57 801.454 439.998 802.006 441.305C801.988 444.271 802.897 447.209 802.106 450.079C802.825 453.313 802.934 456.754 804.332 459.54C804.424 459.751 804.509 459.966 804.59 460.181L806.42 473.275C806.409 473.371 806.4 473.466 806.386 473.563C806.504 476.957 807.969 479.865 808.227 483.199C808.893 485.098 810.335 486.357 810.329 488.657C811.616 491.135 810.745 494.64 812.291 496.978C812.668 501.055 816.264 503.46 815.439 507.971C815.081 513.158 817.377 517.727 818.313 522.524C819.369 524.991 820.775 527.153 822.05 529.448C822.345 531.013 822.822 532.268 823.501 533.125C823.197 536.502 824.746 539.349 825.045 542.582C825.392 545.086 826.783 546.759 827.476 548.963C828.291 550.806 829.646 552.094 829.699 554.48C830.55 557.187 831.556 559.674 832.624 562.2C833.094 562.872 833.541 563.581 833.961 564.322C834.876 567.063 835.963 570.356 837.1 573.862C837.54 576.779 837.995 579.779 838.908 582.411C840.057 585.097 841.295 587.718 840.974 591.104C841.623 595.188 843.743 598.342 844.529 602.297C845.812 605.387 846.324 608.808 847.105 612.164C848.234 614.849 848.812 618.096 849.478 620.992C849.549 622.918 850.064 624.533 850.672 626.092C851.83 631.513 853.071 637.273 853.67 639.975C853.781 642.425 854.224 644.911 854.538 647.346C855.266 649.309 855.127 651.647 855.79 653.59C855.876 653.901 855.945 654.217 856.008 654.536C856.09 655.346 856.218 656.474 856.373 657.773C856.49 659.793 856.51 661.84 856.956 663.755C857.769 668.199 858.192 672.851 858.556 677.422C858.768 678.066 858.927 678.724 859.052 679.392C859.176 680.561 859.303 681.813 859.431 683.117C859.581 686.863 859.278 690.712 860.439 694.097C860.564 695.508 860.69 696.931 860.83 698.54C861.097 702.298 861.429 706.059 861.327 709.887C861.509 714.159 862.067 718.549 861.745 722.872C860.389 726.509 860.172 730.682 861.748 734.247C861.661 737.231 861.11 740.095 861.587 743.117C861.088 745.905 861.279 748.675 861.393 751.412C861.319 752.233 861.24 753.012 861.155 753.743C860.695 757.707 860.194 761.412 859.632 764.995C859.559 765.209 859.483 765.423 859.402 765.633C858.256 767.373 858.474 769.436 858.508 771.543C857.436 777.247 856.143 782.813 854.516 788.752C853.966 790.359 853.525 792.051 853.097 793.749C852.18 796.865 851.171 800.112 850.051 803.565C849.244 806.053 848.676 808.301 848.788 808.561C848.901 808.821 848.582 809.555 848.081 810.193C846.628 812.041 844.762 818.602 846.001 817.507C846.237 817.298 846.431 817.68 846.431 818.357C846.431 818.84 846.358 819.223 846.257 819.504C846.08 819.67 845.877 819.763 845.666 819.826C845.587 819.702 845.519 819.503 845.476 819.207C845.342 818.291 845.227 818.357 844.737 819.632C844.317 820.723 844.293 821.207 844.648 821.376C844.76 821.43 844.863 821.622 844.946 821.892C844.959 822.603 845.004 823.288 845.157 823.948C845.173 824.212 845.201 824.417 845.246 824.567C845.148 825.549 845.608 826.832 845.504 826.895C845.331 826.925 845.142 826.928 844.953 826.929C844.877 826.767 844.803 826.568 844.733 826.318C844.415 825.181 844.344 825.287 844.316 826.972C843.916 827.048 843.598 827.275 843.544 827.984C843.274 828.41 842.805 829.626 842.826 829.683C842.754 829.547 842.72 829.368 842.698 829.176C842.783 828.742 842.941 828.112 843.185 827.125C843.993 823.846 843.374 823.934 842.311 826.974C842.257 826.969 842.198 826.974 842.127 826.994C840.984 826.572 840.624 827.702 841.214 829.05C841.352 829.357 841.441 829.725 841.519 830.097C841.384 831.568 841.874 832.278 843.005 832.293C843.552 832.3 844.078 832.647 844.175 833.063C844.272 833.479 844.789 833.818 845.324 833.818C845.858 833.818 847.421 834.373 848.797 835.05C850.173 835.727 851.545 836.28 851.846 836.28C852.147 836.28 853.52 837.225 854.898 838.379C856.275 839.534 858.08 840.662 858.908 840.885C859.621 841.078 860.524 841.398 861.461 841.773C862.36 842.702 863.427 843.147 864.515 843.151C865.092 843.445 865.604 843.731 865.997 843.987C866.864 844.551 867.444 844.621 867.795 844.203C868.163 843.767 868.453 843.959 868.789 844.858C869.062 845.586 869.695 846.128 870.271 846.128C870.825 846.128 872.08 846.533 873.06 847.028C874.041 847.523 875.14 847.765 875.502 847.567C875.864 847.368 876.393 847.66 876.678 848.215C877.36 849.545 881.064 850.38 887.799 850.721C890.792 850.873 893.697 851.149 894.254 851.333C894.81 851.516 899.622 851.77 904.947 851.896C912.163 852.066 915.121 852.364 916.564 853.067C919.065 854.283 920.817 854.332 922.158 853.222C922.75 852.733 923.524 852.162 923.879 851.955C924.234 851.748 924.856 851.325 925.263 851.015C925.717 850.669 926.432 850.687 927.121 851.061C927.898 851.484 929.978 851.383 933.912 850.732C939.746 849.767 942.38 848.903 942.38 847.953C942.38 847.654 942.913 847.442 943.564 847.482C945.393 847.593 949.831 845.63 950.266 844.516C950.558 843.772 950.738 843.71 950.982 844.274C951.235 844.859 951.634 844.819 952.761 844.095C954.482 842.987 957.915 841.46 960.021 840.867C960.85 840.634 962.651 839.507 964.024 838.362C964.363 838.08 964.699 837.811 965.019 837.565C965.475 837.414 965.918 837.198 966.29 836.681C966.325 836.65 966.361 836.621 966.397 836.59C966.683 836.411 966.918 836.28 967.006 836.28C967.272 836.28 968.762 835.743 970.317 835.087C971.872 834.43 973.919 833.598 974.865 833.238C975.812 832.878 977.039 832.08 977.592 831.465C977.928 831.092 978.141 830.834 978.261 830.565C978.416 830.482 978.573 830.407 978.734 830.345C979.93 829.901 979.182 827.603 979.688 826.428C978.974 824.645 977.938 823.314 978.104 820.922C977.459 818.775 977.743 816.261 976.826 814.274C975.472 812.099 975.765 809.072 974.782 806.6C974.221 804.643 974.032 802.443 972.947 800.839C972.576 796.625 970.823 792.8 969.472 789.118C968.573 785.885 968.873 782.513 968.263 779.269C966.829 776.209 968.1 772.036 966.45 769.013C965.76 766.262 965.194 763.569 964.886 760.597C964 756.556 963.827 752.082 964.212 747.89C965.028 744.466 965.373 740.669 966.736 737.456C967.324 732.402 968.78 727.063 967.135 722.031C967.1 718.95 965.781 716.259 966.312 713.177C966.396 711.245 966.968 709.438 966.878 707.482C968.1 704.444 968.103 700.711 968.676 697.432C969.109 695.037 969.525 692.52 970.192 690.216C971.97 687.504 971.636 683.554 971.928 680.229C972.667 676.677 973.252 673.198 973.259 669.5C974.332 666.903 975.048 664.118 975.534 661.185C976.681 659.158 976.073 656.424 977.139 654.31C977.641 650.101 976.969 645.592 978.83 641.877C979.605 639.437 980.027 636.924 980.212 634.278C980.65 632.28 980.477 630.13 981.046 628.17C981.093 625.903 982.144 624.129 982.593 622.01C983.483 620.297 983.45 618.022 984.217 616.266C984.541 613.911 984.611 611.696 984.67 609.087C985.186 607.245 985.14 605.043 985.394 603.045C985.41 602.931 985.418 602.813 985.431 602.697C985.986 601.003 986.698 597.408 986.698 595.808C986.698 595.683 986.707 595.571 986.714 595.455C986.766 595.16 986.816 594.865 986.865 594.57C986.912 594.453 986.965 594.381 987.023 594.381C987.201 594.381 987.559 593.48 987.818 592.379C992.462 572.604 993.848 566.996 994.88 563.812C996.274 559.512 1000.54 544.24 1004.04 530.982C1005.15 526.796 1006.78 520.091 1008.44 513.032C1010.2 509.961 1012.17 507.055 1012.35 502.787C1012.95 499.609 1012.92 496.385 1012.94 493.184C1013.57 490.249 1014.12 487.662 1014.43 485.964C1016.57 474.574 1018.18 467.013 1021.95 450.656C1028.41 422.642 1029.62 415.308 1028.92 408.383C1028.83 407.481 1028.68 406.496 1028.48 405.455C1029.28 403.29 1029.41 401.473 1028.46 399.275C1027.64 395.469 1024.26 394.06 1023.99 389.691C1022.71 387.62 1023.64 384.776 1022.53 382.65C1021.97 380.69 1021.87 378.58 1020.89 377.003C1020.35 375.196 1019.39 373.979 1018.93 372.439C1018.21 371.093 1017.41 369.656 1016.86 368.068C1016.19 366.547 1015.24 365.463 1014.8 363.683C1014.04 360.944 1012.56 358.702 1011.09 356.631C1009.91 354.492 1009.28 351.878 1008.01 349.801C1007.14 348.496 1006.9 346.812 1006 345.683C1004.85 344.317 1004.32 342.444 1003.45 340.835C1001.88 337.574 1001.33 333.175 998.58 331.448C996.327 329.283 995.597 325.126 993.358 323.052C992.757 320.418 990.653 319.191 989.932 317.04C989.053 316.71 988.99 315.522 988.808 314.505C988.491 313.372 987.117 312.55 986.977 310.536C986.421 309.054 985.099 307.764 984.779 306.422C984.261 305.433 983.462 304.283 983.079 302.992C982.476 301.627 981.672 300.349 981.122 298.872C978.699 296.107 977.211 291.934 975.902 287.962C974.933 286.269 973.771 284.831 973.046 282.843C972.089 281.61 971.212 280.463 970.232 280.037C969.25 278.882 968.347 277.403 967.304 276.161C966.426 274.919 965.236 274.499 964.375 273.135C962.673 270.613 961.752 267.17 959.327 265.771C957.975 264.29 956.907 262.522 955.284 261.606C954.019 260.23 953.081 258.4 952.098 256.691C950.992 254.716 949.316 254.184 948.196 252.402C947.035 251.138 945.684 250.678 944.378 250.211C943.626 249.334 942.657 249.097 941.773 248.812C940.733 247.791 939.474 246.555 938.255 245.574C937.467 244.676 936.743 243.668 935.724 243.632C935.345 243.034 934.537 242.763 933.734 242.74L933.732 242.74ZM926.798 263.35C927.035 263.344 927.282 263.344 927.538 263.35C927.812 263.357 928.098 263.372 928.396 263.392C933.468 263.744 937.053 266.946 938.7 272.596C938.918 273.343 939.076 274.315 939.185 275.38C939.125 276.43 938.999 277.472 938.799 278.486C937.788 281.087 936.956 283.831 935.463 285.883C934.56 287.639 933.577 289.525 932.435 290.845C931.849 291.957 930.871 291.961 930.133 292.825C928.947 294.375 927.373 294.923 926.061 296.213C924.676 297.27 923.382 298.789 922.031 299.97C920.882 300.053 919.821 300.105 918.675 300.457C917.502 299.821 916.522 298.013 915.176 297.396C913.816 295.871 912.691 293.389 910.869 292.87C909.529 290.402 908.748 287.327 906.917 285.484C905.722 284.024 904.552 282.599 903.09 281.797C901.996 280.486 901.039 279.412 901.039 277.257C900.419 275.28 900.288 273.217 900.898 271.192C900.898 271.102 900.895 271.008 900.891 270.913C902.93 266.927 905.625 265.075 909.289 265.075C911.728 265.075 912.23 265.33 915.585 268.274C918.527 270.855 919.299 271.299 919.584 270.581C921.753 265.106 923.236 263.446 926.798 263.349L926.798 263.35ZM896.549 305.851C898.068 305.857 899.355 306.001 900.03 306.312C903.638 307.974 909.636 311.517 913.336 314.173C915.967 316.061 917.76 316.955 918.93 316.963C920.719 316.976 928.827 312.374 929.729 310.834C929.989 310.391 930.289 310.152 930.395 310.304C930.501 310.456 932.127 310.036 934.009 309.372C939.352 307.485 944.654 306.801 952.158 307.029C958.342 307.216 959.172 307.369 960.035 308.47C961.302 310.087 969.498 325.754 970.41 328.301C970.8 329.39 971.544 331.052 972.063 331.994C974.955 337.234 992.802 387.628 991.916 388.05C991.451 388.272 998.68 409.106 999.903 411.07C1000.26 411.641 1000.43 412.394 1000.27 412.744C1000.12 413.093 1000.3 414.206 1000.66 415.215C1001.47 417.436 1001.51 419.206 1000.79 420.297C1000.49 420.744 1000.2 421.803 1000.14 422.649C999.988 424.886 998.739 429.42 998.278 429.42C998.061 429.42 997.883 429.974 997.883 430.651C997.883 431.328 997.69 431.882 997.453 431.882C997.217 431.882 997.023 432.436 997.023 433.113C997.023 433.79 996.877 434.344 996.698 434.344C996.519 434.344 996.121 435.521 995.815 436.96C995.508 438.398 994.193 442.069 992.892 445.116C991.591 448.163 990.368 451.071 990.174 451.579C989.571 453.157 988.314 458.566 988.1 460.504C987.988 461.52 987.604 462.681 987.247 463.086C986.675 463.733 986.71 464.084 987.542 466.009C987.658 466.277 987.753 466.527 987.838 466.765C987.82 467.212 987.806 467.659 987.791 468.106C987.614 467.999 987.439 467.808 987.342 467.583C987.196 467.244 986.87 466.967 986.618 466.967C986.33 466.967 986.359 467.308 986.696 467.89C987.423 469.143 986.38 469.129 985.216 467.87C984.04 466.598 983.411 466.745 984.264 468.093C985.196 469.567 985.225 473.123 984.304 473.123C983.935 473.123 983.753 473.399 983.899 473.737C984.045 474.075 983.878 474.938 983.527 475.654C983.176 476.371 982.982 477.305 983.097 477.73C983.211 478.155 983.021 478.659 982.674 478.849C982.328 479.039 981.914 480.113 981.754 481.236C981.594 482.359 981.093 484.743 980.639 486.533C980.184 488.323 979.812 490.592 979.812 491.575C979.812 491.712 979.801 491.844 979.793 491.978C979.241 492.402 978.694 492.847 978.143 493.258C977.9 492.853 977.74 492.516 977.713 492.311C977.633 491.721 978.167 489.944 978.9 488.361C981.571 482.594 981.178 480.023 976.435 472.229L973.381 467.209L974.539 466.475C975.176 466.072 976.045 464.901 976.469 463.874C977.329 461.79 977.081 460.598 975.179 457.663C973.79 455.52 974.074 454.84 976.363 454.828C978.265 454.818 978.29 454.845 978.342 456.998C978.372 458.198 978.42 459.468 978.451 459.822C978.53 460.726 981.058 462.01 981.364 461.301C981.5 460.986 981.305 460.561 980.93 460.355C980.05 459.872 980.067 458.213 980.979 455.476C981.669 453.407 981.665 453.22 980.919 452.04C980.485 451.354 979.501 450.624 978.733 450.417C977.571 450.106 977.271 449.663 976.942 447.779C976.573 445.659 975.935 444.767 973.042 442.321C972.329 441.718 972.314 441.416 972.861 438.765L973.459 435.87L975.003 437.205C975.852 437.94 977.037 438.958 977.636 439.468C978.235 439.977 977.465 438.534 975.924 436.261C973.295 432.379 973.155 432.029 973.638 430.514C974.818 426.809 974.301 425.398 970.103 420.859C968.263 418.869 968.085 418.444 968.07 416.005C968.041 411.245 966.381 407.893 962.273 404.297C960.602 402.833 960.107 401.99 959.743 399.985C959.494 398.614 959.184 396.971 959.054 396.334C958.246 392.374 952.14 386.59 948.766 386.589C947.426 386.589 946.868 386.177 945.762 384.376C943.498 380.687 940.873 379.343 939.742 381.292C938.74 383.02 937.208 382.408 935.927 379.769C934.378 376.581 933.388 376.089 928.516 376.094C924.884 376.1 924.352 376.251 923.226 377.605C921.676 379.472 921.428 379.462 920.425 377.492C919.642 375.954 919.642 375.887 920.425 375.021C920.868 374.531 921.574 374.244 921.993 374.382C923.098 374.746 922.93 373.667 921.802 373.154C921.097 372.834 920.634 373.101 920.026 374.176C919.367 375.34 918.852 375.593 917.448 375.448C916.032 375.302 915.454 375.594 914.462 376.953C913.349 378.479 913.099 378.574 911.83 377.941C909.617 376.837 906.889 377.06 906.031 378.416C905.441 379.349 904.986 379.491 903.811 379.112C900.839 378.153 896.93 380.084 894.338 383.792C893.261 385.333 893.209 385.344 891.935 384.298C890.831 383.392 890.372 383.34 888.929 383.959C885.529 385.416 882.334 392.025 883.124 395.965C883.704 398.86 883.041 400.716 881.401 400.782C880.58 400.816 879.214 401.711 877.931 403.059C876.767 404.281 875.62 405.281 875.382 405.281C875.144 405.281 874.689 405.772 874.372 406.371C873.881 407.299 873.886 407.346 874.406 406.684C875.362 405.464 875.496 405.712 875.496 408.708C875.496 411.505 875.492 411.512 873.949 411.512C872.161 411.512 871.358 412.417 871.358 414.433C871.358 415.472 870.946 416.104 869.834 416.769C868.519 417.554 868.309 417.969 868.309 419.78C868.309 421.55 868.086 422.02 866.897 422.771C864.979 423.982 864.506 426.163 865.18 430.688C865.658 433.906 865.636 434.317 864.951 434.879C863.268 436.26 861.253 439.576 861.512 440.54C861.873 441.887 860.849 443.801 859.098 445.052C858.295 445.625 857.413 446.796 857.137 447.653C856.551 449.472 856.142 458.245 856.643 458.245C856.831 458.245 856.984 456.344 856.984 454.022C856.984 449.094 857.556 447.566 860.042 445.848L861.74 444.675L862.237 446.829C862.51 448.013 862.665 449.054 862.581 449.142C862.498 449.23 861.743 449.957 860.904 450.758C858.486 453.069 857.832 454.518 857.932 457.349C857.999 459.269 857.779 460.224 857.017 461.315C856.116 462.603 856.042 463.126 856.298 466.366C856.717 471.658 855.529 472.164 854.768 467.017C854.401 464.533 853.113 459.47 853.083 460.395C853.073 460.72 852.838 460.663 852.561 460.267C852.18 459.722 852.444 458.932 853.649 457.024C855.137 454.668 855.242 454.238 855.242 450.462C855.242 446.491 855.28 446.359 857.396 443.017C859.561 439.597 860.31 436.875 859.912 433.87C859.78 432.866 859.697 433.152 859.657 434.754C859.583 437.691 858.678 440.274 857.102 442.042C855.33 444.03 854.839 445.676 854.822 449.692C854.808 453.03 854.677 453.489 852.999 456.094L851.191 458.899L852.293 462.154C854.375 468.309 854.282 469.602 851.698 470.414C850.129 470.907 849.713 472.156 850.334 474.509C850.738 476.038 850.669 476.376 849.785 477.204C849.412 477.554 849.126 477.908 848.918 478.301C848.899 477.992 848.888 477.682 848.894 477.371C848.959 475.839 848.346 474.572 847.663 473.365C847.078 472.221 846.461 471.231 846.021 469.895C845.487 468.729 844.152 468.564 844.487 466.825C844.613 464.839 844.54 462.916 844.269 461.102C844.278 459.472 843.99 458.062 843.468 456.673C843.066 456.024 842.056 456.12 842.275 454.32C841.932 452.212 841.478 450.127 840.528 448.344C839.693 447.076 839.981 444.987 838.918 443.824C838.156 441.887 838.133 439.633 837.036 437.94C836.637 436.886 836.705 435.658 836.451 434.572C835.876 432.015 834.237 430.272 834.262 427.439C833.52 424.837 832.011 422.866 832.307 419.935C832.546 418.527 832.244 417.132 832.316 415.806C832.54 414.144 832.72 412.459 832.759 410.719C834.219 408.934 835.1 406.479 835.558 403.869C836.512 400.74 837.514 397.616 839.238 395.223C840.256 392.931 841.071 390.394 840.888 387.496C840.632 385.237 841.383 383.371 842.088 381.517C842.133 379.818 842.343 378.164 842.699 376.582C843.22 375.036 843.782 373.356 844.259 371.953C844.858 370.67 845.572 369.478 846.394 368.403C847.808 365.286 849.269 362.19 850.533 358.977C851.505 356.45 853.238 354.447 853.072 351.29C853.802 347.84 855.038 344.577 855.893 341.198C856.053 340.373 856.212 339.529 856.434 338.742C856.478 338.622 856.639 338.206 856.665 338.132C856.784 337.793 856.964 337.378 857.161 336.953C857.445 336.479 857.795 336.076 858.245 335.781C858.856 333.928 859.663 332.347 860.494 330.765C861.486 329.453 861.554 327.464 862.553 326.177C862.759 325.562 862.994 324.977 863.219 324.381C863.435 323.976 863.644 323.582 863.874 323.148C865.137 321.882 866.163 320.188 866.711 318.125C867.001 317.444 867.303 316.764 867.613 316.089C870.22 311.395 871.3 310.648 875.218 308.702C876.941 307.846 878.781 307.543 882.317 307.532C884.942 307.524 887.864 307.254 888.811 306.932C890.848 306.24 894.019 305.846 896.549 305.851ZM931.414 377.255C932.137 377.225 933.05 377.45 933.812 377.946C934.406 378.333 935.123 379.448 935.405 380.423C935.727 381.536 936.463 382.477 937.38 382.952C938.512 383.537 938.734 383.892 938.367 384.525C937.847 385.421 936.693 385.64 936.693 384.841C936.693 384.566 936.009 383.273 935.174 381.968C933.915 380.002 933.461 379.666 932.519 380.004C931.299 380.442 930.159 379.523 930.159 378.101C930.159 377.572 930.692 377.286 931.414 377.255ZM941.461 381.62C941.912 381.592 942.36 381.736 942.505 382.071C942.615 382.328 942.13 382.598 941.426 382.671C940.696 382.747 940.258 382.545 940.405 382.203C940.558 381.849 941.011 381.648 941.461 381.62ZM890.151 384.906C890.667 384.906 891.11 385.027 891.392 385.295C891.952 385.829 891.922 386.045 891.174 386.838C890.696 387.346 889.597 387.935 888.73 388.15C887.864 388.364 886.492 389.335 885.681 390.308C884.871 391.28 884.135 391.975 884.046 391.853C883.958 391.731 884.252 390.737 884.7 389.643C885.148 388.549 886.009 387.126 886.613 386.481C887.523 385.512 889.014 384.909 890.151 384.906ZM948.39 389.957C948.873 389.965 949.932 390.078 951.123 390.256C955.68 390.938 957.38 393.263 959.033 401.076C959.673 404.104 959.487 404.524 958.007 403.391C957.397 402.923 957.164 402.08 957.164 400.33C957.164 397.155 955.526 395.148 951.508 393.402C949.853 392.683 948.405 391.669 948.259 391.126C948.115 390.588 948.051 390.076 948.116 389.987C948.133 389.965 948.229 389.955 948.39 389.957ZM882.582 395.055C882.387 395.08 881.933 395.481 881.406 396.115C880.704 396.96 879.25 398.261 878.175 399.005C877.1 399.75 875.984 400.766 875.695 401.262C875.407 401.759 875.245 402.123 875.334 402.071C875.423 402.019 876.704 401.108 878.181 400.046C880.952 398.054 882.683 396.175 882.683 395.16C882.683 395.079 882.647 395.047 882.582 395.055ZM963.18 407.205C963.446 407.156 964.157 407.765 965.126 408.983C966.6 410.833 967.575 414.026 967.279 416.03C967.075 417.413 966.937 417.398 965.399 415.832C964.392 414.806 964.134 414.072 964.134 412.232C964.134 410.961 963.828 409.297 963.455 408.535C963.035 407.678 962.973 407.242 963.18 407.205ZM873.753 408.116C873.703 408.121 873.535 408.382 873.285 408.864C872.886 409.635 872.362 410.266 872.123 410.266C871.883 410.266 871.952 409.776 872.277 409.176C872.768 408.269 872.706 408.283 871.905 409.259C871.376 409.905 871.048 410.676 871.176 410.973C871.532 411.797 872.028 411.623 872.749 410.422C873.109 409.822 873.54 408.911 873.707 408.397C873.77 408.204 873.783 408.113 873.753 408.116ZM866.022 417.13C865.603 417.125 865.26 417.401 865.26 417.744C865.26 418.504 865.309 418.504 866.131 417.744C866.69 417.228 866.674 417.138 866.022 417.13ZM864.295 422.92C864.215 422.912 864.083 423.101 863.937 423.459C863.704 424.032 862.939 424.68 862.239 424.9C860.9 425.321 859.713 426.839 860.189 427.521C860.343 427.741 860.469 427.616 860.469 427.243C860.469 426.871 861.059 426.381 861.78 426.154C863.2 425.708 864.397 424.323 864.376 423.151C864.372 422.999 864.343 422.924 864.295 422.92ZM971.112 423.476C971.372 423.442 971.736 423.891 972.296 424.754C973.388 426.438 973.564 427.469 973.145 429.738C972.771 431.76 972.53 431.814 971.162 430.183C970.257 429.105 970.169 428.617 970.427 426.154C970.615 424.364 970.777 423.521 971.112 423.476ZM853.993 471.041C854.214 471.046 854.395 471.115 854.505 471.273C855.11 472.139 854.396 474.472 853.352 475.038C852.268 475.626 851.322 474.797 851.322 473.26C851.322 472.278 853.035 471.025 853.993 471.041ZM856.048 473.844L857.213 475.823C859.552 479.801 859.618 482.946 857.376 483.587C856.671 483.789 855.966 484.251 855.809 484.614C855.647 484.989 855.351 484.619 855.124 483.754C854.904 482.918 854.369 481.092 853.936 479.694L853.148 477.154L854.599 475.499L856.048 473.844ZM975.825 476.623C976.672 476.681 978.092 478.305 978.782 480.213C979.602 482.481 979.317 484.309 977.622 487.657C976.226 490.414 975.776 491.727 977.011 494.013C976.752 494.165 976.49 494.3 976.224 494.412C975.999 493.86 975.788 493.398 975.609 493.096C975.125 492.279 975.15 491.666 975.759 489.358C976.159 487.839 976.745 486.153 977.062 485.612C977.989 484.025 977.73 482.12 976.264 479.731C975.313 478.182 975.032 477.298 975.347 476.848C975.465 476.679 975.63 476.609 975.825 476.623ZM851.387 477.669C851.782 477.704 852.065 478.4 852.828 480.265C854.186 483.58 854.224 485.229 852.979 486.888C851.921 488.298 851.768 488.22 850.691 484.561C850.668 483.748 850.595 482.95 850.162 482.419C850.116 482.352 850.078 482.277 850.035 482.206C849.402 479.705 849.531 478.888 850.422 478.206C850.87 477.863 851.149 477.647 851.387 477.669ZM853.515 488.595C853.878 488.66 853.945 489.561 854.144 492.401C854.17 492.775 854.183 493.135 854.197 493.496C853.893 493.467 853.68 493.322 853.585 493.023C853.471 493.042 853.337 493.018 853.206 492.969C853.627 493.615 854.118 494.226 854.218 494.287C854.218 494.287 854.218 494.293 854.218 494.294C853.781 493.951 853.448 493.474 853.154 492.946C852.77 492.779 852.433 492.394 852.724 492.116C852.778 492.246 852.856 492.393 852.942 492.544C852.63 491.933 852.341 491.289 851.988 490.718C851.985 490.708 851.985 490.692 851.983 490.682C851.822 489.955 852.085 489.387 852.799 488.922C853.125 488.709 853.351 488.566 853.515 488.595ZM852.942 492.544C853.011 492.68 853.081 492.815 853.154 492.946C853.172 492.953 853.188 492.962 853.206 492.969C853.112 492.824 853.022 492.684 852.942 492.544Z" fill="black"/>
<path d="M754.468 329.475C753.953 329.54 753.561 329.721 753.33 329.983C753.152 330.196 752.619 330.753 752.156 331.195C751.694 331.67 751.249 332.309 751.125 332.67C750.52 334.62 750.413 335.177 750.484 335.751C750.538 336.078 750.502 336.455 750.395 336.57C750.289 336.685 750.235 337.799 750.271 339.519C750.342 342.157 750.2 344.271 749.844 346.188C749.755 346.68 749.577 347.827 749.47 348.728C749.346 349.629 749.221 350.481 749.168 350.613C748.972 351.104 748.901 352.431 748.848 356.921C748.777 361.214 748.652 362.951 748.261 364.672C747.994 365.802 747.123 366.425 746.589 365.868C746.447 365.72 746.126 365.442 745.895 365.245C745.664 365.049 745.077 364.426 744.579 363.836C744.099 363.262 743.423 362.607 743.103 362.394C742.765 362.181 742.213 361.771 741.858 361.509C741.271 361.05 741.128 361.018 739.794 361.018C738.318 361.034 737.927 361.132 736.842 361.837C735.846 362.476 735.775 362.558 735.775 363.049C735.775 363.312 735.668 363.557 735.543 363.607C735.383 363.656 735.312 363.951 735.348 364.524C735.366 364.983 735.312 365.36 735.241 365.36C735.152 365.36 735.063 365.557 735.028 365.802C734.992 366.179 734.885 366.277 734.405 366.31C733.978 366.343 733.818 366.294 733.818 366.13C733.818 365.999 733.694 365.802 733.551 365.688C733.409 365.573 733.285 365.294 733.285 365.081C733.285 364.508 731.684 363.066 731.008 363.049C730.741 363.033 729.781 363.033 728.856 363.033C727.379 363.049 727.13 363.099 726.543 363.459C725.494 364.131 725.138 364.852 724.391 367.654C723.947 369.342 723.84 369.62 723.609 369.637C723.502 369.637 723.289 369.669 723.128 369.702C722.791 369.751 722.524 369.292 722.328 368.358C722.275 368.014 722.15 367.654 722.079 367.572C722.026 367.474 721.777 366.867 721.545 366.212C721.296 365.573 721.065 365.032 720.994 365.032C720.923 365.032 720.887 364.836 720.887 364.59C720.887 364.36 720.727 364.065 720.549 363.934C720.318 363.77 720.247 363.541 720.283 363C720.3 362.607 720.229 362.23 720.123 362.165C720.034 362.115 719.945 361.821 719.945 361.526C719.945 361.231 719.891 360.936 719.82 360.87C719.749 360.805 719.678 360.493 719.66 360.198C719.66 359.887 719.518 359.494 719.358 359.33C719.18 359.166 719.055 358.822 719.055 358.576C719.055 358.33 718.984 357.822 718.895 357.445C718.806 357.069 718.628 356.298 718.504 355.725C718.397 355.168 718.219 354.66 718.148 354.611C718.059 354.562 717.988 354.234 717.988 353.89C717.988 353.546 717.917 353.202 717.81 353.152C717.721 353.103 717.632 352.726 717.632 352.349C717.632 351.907 717.526 351.563 717.366 351.432C717.206 351.317 717.099 350.957 717.099 350.596C717.099 350.252 717.028 349.924 716.921 349.875C716.832 349.826 716.743 349.597 716.743 349.384C716.743 349.171 716.672 348.941 716.565 348.892C716.476 348.843 716.387 348.466 716.387 348.073C716.387 347.679 716.298 347.303 716.209 347.253C716.103 347.188 716.032 347.057 716.049 346.959C716.085 346.729 715.907 346.221 715.658 345.861C715.569 345.73 715.409 345.435 715.32 345.222C715.089 344.746 714.449 343.976 714.289 343.993C714.217 343.993 713.915 343.911 713.595 343.78C713.275 343.665 712.759 343.567 712.439 343.567C711.621 343.567 710.589 344.37 710.358 345.172C710.055 346.205 710.091 348.63 710.393 349.793C710.553 350.383 710.678 351.284 710.696 351.792C710.696 353.07 711.211 356.004 711.532 356.577C711.674 356.823 711.745 357.216 711.692 357.413C711.638 357.626 711.656 357.855 711.763 357.904C711.852 357.953 711.941 358.429 711.941 358.937C711.958 360.067 712.403 363.639 712.563 363.885C712.634 363.983 712.759 364.606 712.848 365.245C712.955 366.032 713.115 366.491 713.31 366.638C713.524 366.785 713.559 366.884 713.417 367.015C713.292 367.13 713.275 367.343 713.364 367.556C713.435 367.736 713.613 368.211 713.737 368.588C713.862 368.981 714.004 369.292 714.075 369.292C714.146 369.292 714.217 369.571 714.217 369.899C714.235 370.669 714.858 373.602 715.16 374.372C715.783 375.962 716.37 377.223 716.636 377.502C716.796 377.682 716.921 378.075 716.921 378.387C716.921 378.698 717.01 378.96 717.117 378.96C717.259 378.96 717.259 379.026 717.117 379.19C716.957 379.37 716.939 379.517 717.099 379.779C717.206 379.96 717.312 380.566 717.312 381.14C717.33 381.697 717.401 382.237 717.49 382.336C717.561 382.434 717.668 383.057 717.704 383.728C717.792 385.367 718.024 386.989 718.148 386.989C718.291 386.989 718.237 392.38 718.095 392.511C718.042 392.56 718.077 392.741 718.184 392.921C718.308 393.15 718.308 393.298 718.166 393.462C717.881 393.773 718.095 396.886 718.468 398.132C718.86 399.426 719.091 400.59 719.091 401.245C719.091 401.556 719.18 401.917 719.287 402.032C719.393 402.163 719.5 402.474 719.518 402.736C719.536 402.998 719.696 403.326 719.838 403.474C719.998 403.605 720.123 403.998 720.123 404.342C720.123 404.686 720.247 405.276 720.389 405.653C720.532 406.013 720.603 406.325 720.549 406.325C720.514 406.325 720.567 406.489 720.692 406.685C720.816 406.898 720.887 407.111 720.87 407.177C720.852 407.226 720.958 407.373 721.101 407.472C721.243 407.586 721.368 407.816 721.368 407.963C721.368 408.127 721.492 408.733 721.652 409.291C721.848 409.995 721.901 410.651 721.83 411.388C721.67 413.108 721.528 413.928 721.35 414.108C721.261 414.19 721.19 414.616 721.19 415.042C721.19 415.468 721.119 415.828 721.03 415.828C720.816 415.828 720.87 421.072 721.083 421.383C721.172 421.498 721.154 421.645 721.065 421.711C720.976 421.76 720.905 421.957 720.887 422.137C720.887 422.317 720.87 422.792 720.852 423.202C720.834 423.612 720.852 424.234 720.905 424.595C720.994 425.365 721.065 426.365 721.012 426.479C720.941 426.692 720.87 427.659 720.887 428.773C720.887 429.445 720.87 431.133 720.852 432.493L720.816 435H738.407H755.998L756.123 434.312C756.211 433.738 756.247 432.313 756.229 429.757C756.211 428.413 756.407 424.808 756.496 424.677C756.549 424.595 756.514 424.513 756.407 424.513C756.265 424.513 756.247 424.398 756.318 424.234C756.514 423.776 756.585 420.564 756.389 420.236C756.283 420.056 756.3 419.909 756.407 419.843C756.496 419.794 756.585 419.597 756.585 419.417C756.585 419.253 756.674 419.106 756.781 419.106C756.87 419.106 756.905 419.024 756.834 418.925C756.709 418.729 756.692 415.042 756.834 412.748C756.887 411.699 756.976 411.339 757.208 411.175C757.385 411.06 757.528 410.732 757.545 410.454C757.545 410.159 757.617 409.93 757.706 409.93C757.777 409.93 757.83 409.798 757.83 409.635C757.83 409.471 757.901 409.274 757.99 409.192C758.275 408.914 758.897 407.799 758.897 407.57C758.897 407.439 759.022 407.308 759.164 407.242C759.306 407.193 759.431 406.964 759.431 406.734C759.431 406.505 759.555 406.275 759.698 406.226C759.84 406.161 759.964 406.03 759.964 405.915C759.964 405.817 760.125 405.587 760.32 405.423C760.516 405.26 760.676 405.03 760.676 404.899C760.676 404.784 760.783 404.637 760.925 404.588C761.067 404.539 761.209 404.309 761.263 404.063C761.316 403.818 761.583 403.408 761.85 403.146C762.366 402.638 762.988 401.638 762.988 401.311C762.988 401.196 763.166 401.081 763.397 401.016C763.628 400.966 763.931 400.655 764.144 400.229C764.34 399.836 764.642 399.426 764.802 399.311C764.98 399.197 765.123 398.967 765.123 398.804C765.123 398.623 765.247 398.459 765.389 398.394C765.532 398.345 765.656 398.197 765.656 398.066C765.656 397.951 765.781 397.804 765.923 397.738C766.065 397.689 766.19 397.542 766.19 397.394C766.19 397.263 766.296 397.149 766.439 397.149C766.563 397.149 766.723 396.936 766.777 396.673C766.848 396.411 767.132 395.936 767.435 395.625C767.719 395.313 767.968 394.986 767.968 394.887C767.968 394.805 768.075 394.691 768.2 394.642C768.324 394.592 768.538 394.265 768.662 393.888C768.769 393.511 768.947 393.216 769.036 393.216C769.142 393.216 769.213 393.101 769.213 392.97C769.213 392.839 769.32 392.724 769.445 392.724C769.551 392.724 769.836 392.364 770.032 391.938C770.352 391.299 770.387 390.987 770.281 390.43C770.209 390.037 770.192 389.562 770.263 389.382C770.334 389.185 770.352 388.743 770.316 388.382C770.263 388.022 770.209 387.284 770.209 386.743C770.192 386.203 770.121 385.646 770.067 385.515C769.996 385.383 769.907 384.941 769.854 384.531C769.623 382.942 769.516 382.483 769.356 382.287C769.267 382.172 769.196 381.074 769.196 379.845C769.196 377.928 769.142 377.469 768.822 376.764C768.626 376.306 768.306 375.814 768.128 375.65C767.933 375.503 767.791 375.323 767.791 375.224C767.791 374.995 767.221 374.585 766.723 374.454C766.474 374.389 765.941 374.11 765.532 373.864C765.087 373.569 764.553 373.389 764.198 373.389C763.753 373.389 763.415 373.225 762.846 372.734C762.33 372.291 761.868 372.045 761.37 371.98C760.498 371.849 759.057 370.636 759.2 370.128C759.253 369.948 759.164 369.784 758.986 369.735C758.773 369.653 758.702 369.391 758.719 368.44C758.719 367.064 758.63 366.032 758.453 365.54C758.381 365.327 758.417 365.196 758.542 365.196C758.666 365.196 758.719 365.081 758.666 364.95C758.595 364.819 758.63 364.672 758.719 364.623C758.826 364.557 758.862 364.115 758.791 363.59C758.737 363.082 758.702 361.739 758.737 360.608C758.755 359.477 758.773 358.019 758.791 357.364C758.791 356.725 758.879 356.184 758.951 356.184C759.04 356.184 759.075 355.905 759.04 355.577C758.986 355.25 759.057 354.578 759.182 354.103C759.324 353.513 759.342 353.038 759.235 352.562C759.111 352.071 759.128 351.727 759.271 351.399C759.413 351.088 759.431 350.629 759.342 350.072C759.217 349.302 759.2 349.007 759.253 348.024C759.306 347.204 759.093 342.895 759.004 342.764C758.933 342.682 758.968 342.272 759.075 341.862C759.324 340.83 759.253 334.964 758.968 333.735C758.897 333.424 758.702 333.063 758.506 332.949C758.328 332.834 758.061 332.457 757.901 332.129C757.599 331.425 756.958 330.753 756.745 330.884C756.656 330.933 756.585 330.818 756.585 330.655C756.585 330.392 755.447 329.245 755.287 329.327C755.269 329.344 754.895 329.409 754.468 329.475Z" fill="black"/>
<path d="M786.769 433.968C786.733 434.05 786.644 434.295 786.573 434.541C786.484 434.885 786.52 435 786.733 435C786.929 435 787 434.836 787 434.426C787 433.869 786.929 433.722 786.769 433.968Z" fill="black"/>
</g>
</g>
<defs>
<clipPath id="clip0_0_1">
<rect width="1330" height="612" fill="white"/>
</clipPath>
<clipPath id="clip1_0_1">
<rect width="900" height="789" fill="white" transform="translate(328 31)"/>
</clipPath>
</defs>
</svg>
